<?xml version="1.0" encoding="UTF-8"?>
<svg id="Layer_2" data-name="Layer 2" xmlns="http://www.w3.org/2000/svg" viewBox="0 0 121.33 121.33">
  <defs>
    <style>
      .cls-1 {
        fill: #231f20;
      }

      .cls-2 {
        fill: #fff;
      }

      .cls-3 {
        fill: none;
      }

      .cls-4 {
        fill: #243b4c;
      }

      .cls-5 {
        fill: #e19f3d;
      }
    </style>
  </defs>
  <g id="Logo_type" data-name="Logo type">
    <g>
      <g id="Swan">
        <circle class="cls-5" cx="61.14" cy="59.31" r="31.56"/>
        <path d="M83.6,83.48c-13.07,12.13-33.44,11.74-46.03-.94-12.94-13.03-12.81-34.11.29-46.97,12.64-12.42,32.8-12.68,45.76-.64,5.94,5.52,9.66,13.04,10.43,21.1.98,10.3-2.87,20.41-10.45,27.44ZM67.53,87c1.54-.32,3.29-.91,4.76-1.53,7.66-3.24,13.42-9.61,15.95-17.54.26-.82.48-1.6.65-2.45l.26-1.3.15-.9c.07-.43.12-.88.15-1.31l.16-2.08c.03-.38.03-.81,0-1.18l-.16-2.07c-.03-.44-.09-.87-.15-1.32-.63-4.47-2.27-8.67-4.87-12.37-.72-1.02-1.43-1.94-2.27-2.85-.59-.64-1.16-1.25-1.81-1.82l-.59-.52c-1.93-1.69-4.32-3.21-6.67-4.29s-4.55-1.71-6.95-2.17c-.22-.04-2.04-.28-2.2-.29-1.68-.04-1.97-.28-3.64-.15l-2.07.17c-2.67.22-5.75,1.05-8.21,2.1-.49.21-.93.39-1.39.63-.95.51-1.9.97-2.8,1.56-3.2,2.13-5.47,4.19-7.72,7.32-2.47,3.44-4.13,7.32-4.88,11.47-.04.2-.07.37-.1.58l-.2,1.48c-.08.59-.08,1.14-.15,1.73-.21,1.78.04,2.7.14,4.43.04.71.39,2.7.58,3.46l.22.9c1.1,4.49,3.83,9.1,7.04,12.43.6.62,1.2,1.15,1.85,1.71,1.61,1.41,3.34,2.56,5.24,3.58,3.08,1.64,6.4,2.63,9.85,3.09.29.04.54.11.82.08.45-.04.85.08,1.29.11.86.07,1.76.06,2.62,0l1.72-.14c1.16-.09,2.25-.34,3.39-.58Z"/>
        <path d="M42.76,64.03c.75.08,1.43,0,2.14.15.43.08.9.06,1.35,0l-3.05-4.71c.66.13,1.08.42,1.74.61-.23-.33-.45-.62-.71-.93l-2.28-2.72c.74.24,1.26.53,2.02.84l-.98-2.88c.33,0,.57.17.85.3l1.18.53-.33-1.05c-.02-.05.04-.28.09-.28s.13.01.21.03l.95.2c.25.05.48.09.7.07l-.61-.57c-.28-.25-.54-.44-.8-.79,1,0,1.54.28,2.4.33l-.64-1.26.16-.15,1.84.52-.75-1.31,2.18.53.86.18c.21.04.38.1.65.06l-1.53-2.46-.03-.2s.15-.01.18.01l1.58,1.21c.19.14.36.25.59.4l-.8-2.75c.9.69,1.46,1.43,2.24,2.1.28-.47.02-1.12.26-1.87l.91.72.65.52c.78.62,1.51,1.25,2.24,1.92l.66.61c.49.45.98.98,1.3,1.55.72,1.26.74,2.96,1.46,3.29l2.2,1.01c3.54,1.62,5.58,3.59,7.53,6.96.84,1.46,1.54,2.95,2.15,4.54.24.26,1.54-.97,1.7-1.17,1.18-1.46,1.54-2.85,1.39-4.72-.07-.88-.34-1.62-.72-2.42-.62-1.33-1.46-2.71-2.29-3.92l-.48-.71-2.44-3.55-1.02-1.57c-.55-.84-1.05-1.69-1.48-2.59-.84-1.72-1.33-3.4-.66-5.26.5-1.41,1.56-2.43,2.84-3.15,1.19-.66,2.46-.93,3.82-.79,1.96.21,3.87.93,5.18,2.45.36.42.29,1.16.34,1.66.1.97.8.87.94,1.89.09.69-.05,1.34-.35,2.05-.82-.97-1.06-1.64-2.45-1.93l-1.33-.28c-1.34-.28-2.89-1.23-3.1-2.64-1.18.5-1.98,1.51-2.26,2.73-.15.65-.21,1.26.13,1.86s.84,1.17,1.35,1.68l1.73,1.7c.85.83,1.69,1.63,2.5,2.5,2.62,2.8,4.77,6.04,5.38,9.89.33,2.06.28,3.72-.25,5.74-.41,1.59-1.25,2.97-2.34,4.17-.18.19-.33.35-.52.52-2.35,2.09-5.07,3.08-8.13,3.65-.22.04-2.14.29-2.21.29l-1.24.04c-.62.02-1.19.12-1.81.02-.44-.07-.92.03-1.38-.04l-.87-.13c-.46-.07-.87-.03-1.32-.09-.97-.14-1.89-.33-2.85-.56l-.54-.13c-.69-.16-1.31-.26-2.02-.17-1.51.2-.07,1.72-3.36,2.05l-1.31.13-.25-.02c-.6-.05,1.16-.97,1.18-1.16-3.61-1.07-6.12-1.83-9.37-3.64-1.14-.64-2.1-1.46-2.99-2.41l-.89-.96c-.42-.45-1.11-1.33-1.44-1.98.22.05.27.08.5.16-.1-.3-.35-.58-.58-.86l-1.75-2.24c.26-.04.38.11.55.22l1.13.75c.1-.34-.14-.52-.28-.76l-.72-1.2-1.26-1.99c-.2-.31-.42-.58-.57-.98,1.27.88,2.51,1.7,3.99,2.13.64.19,1.25.26,1.91.33l1.55.16ZM77.97,42.56c.02.25.58.42.65.25.31-.38-1.06-1.58-1.34-1.23-.15.26.14.65.42.83l.34-.44c.27.22-.09.43-.08.6Z"/>
        <path class="cls-2" d="M77.97,42.56c-.01-.17.35-.38.08-.6l-.34.44c-.29-.18-.58-.57-.42-.83.28-.35,1.65.86,1.34,1.23-.07.18-.64,0-.65-.25Z"/>
      </g>
      <rect class="cls-1" x="16.98" y="52.64" width="4.47" height="4.47" transform="translate(44.43 2.48) rotate(45)"/>
      <rect class="cls-1" x="100.69" y="53.77" width="4.47" height="4.47" transform="translate(69.75 -56.38) rotate(45)"/>
      <g>
        <g>
          <path class="cls-1" d="M16.4,44.6c.09-.22.16-.43.25-.65.08-.2.14-.34.18-.54.16-.04.27.05.41.08.15.04.31.05.45.11.11.05.21.09.32.08.04,0,.08,0,.13.03.3.17.66.19.98.32.12.06.25.04.38.1.1.07.22.08.35.08.05,0,.11.04.16.05.14.04.27.11.41.12.06,0,.11.03.16.05.32.14.66.19,1,.28.18.03.36.09.54.13.15.04.3.1.47.13.16.01.32.08.47.13l.54.18c.07.03.12.04.18-.01,0-.05-.06-.05-.09-.06-.11-.06-.23-.09-.32-.19-.04-.03-.09-.06-.13-.08-.19-.07-.33-.19-.48-.29-.12-.09-.24-.15-.37-.21-.16-.08-.31-.17-.47-.26-.15-.07-.31-.11-.44-.23-.04-.04-.12-.06-.17-.08-.1-.06-.2-.11-.29-.17-.18-.14-.42-.2-.6-.34-.16.01-.3-.08-.44-.1-.15,0-.28-.07-.42-.11l-.45-.12c-.51-.13-.65-.24-1.17-.31-.06-.01-.47-.13-.53-.15-.04,0-.12-.04-.16-.05-.06-.13.01-.19.06-.27.06-.08.01-.19.12-.23.03-.11.09-.23.1-.34.01-.1.08-.16.1-.24.02-.07.03-.16.08-.22.13-.01.22.08.38.08.27.12.58.15.86.23.32.09.62.23.94.32.2.07.4.12.61.17.1.01.19.03.29.08.14.06.29.09.45.09.14.11.29.22.48.21.39.16.82.22,1.22.33.36.09.71.23,1.09.27.09,0,.17.06.25.08.13.05.25.1.4.06-.02-.02-.02-.04-.03-.04-.26-.08-.45-.26-.68-.39-.13-.06-.24-.15-.39-.2-.29-.1-.54-.3-.82-.42-.06-.1-.21-.06-.29-.14-.07-.08-.18-.09-.26-.14-.25-.16-.53-.27-.79-.41-.23-.13-.44-.28-.68-.42-.05-.09-.17-.03-.23-.09-.06-.06-.15-.1-.22-.14-.13-.05-.27-.11-.4-.18l-.33-.19c-.12-.08-.27-.11-.37-.23-.23-.09-.44-.2-.68-.36l-.07-.14c.08-.19.15-.39.24-.58.09-.18.13-.42.23-.59.07-.05.13-.01.18.02.22.18.53.38.79.5.14.13.32.18.5.25.24.11.43.26.66.39.04.03.09.06.13.08.32.13.58.32.89.45.1.06.2.12.3.19.28.19.59.3.84.53.07.07.16.07.23.08.23.13.43.28.67.39.15.06.3.16.46.25.16.08.33.12.46.25.28.13.52.29.77.46.06.04.12.05.19.08.13.06.26.12.37.22.15.11.33.19.49.28.25.16.52.28.78.42.07.05.1.13.11.22-.21.48-.3,1.05-.56,1.5-.18,0-.38,0-.55-.07-.42-.17-.88-.28-1.34-.34-.03,0-.06-.01-.09-.03-.22-.1-.47-.13-.69-.22-.19-.08-.39-.08-.58-.12.29.18.55.4.86.54.14.06.27.15.41.22.14.07.3.11.43.2.26.16.53.27.77.43.09.05.18.09.28.13.07.03.11.08.12.15-.08.32-.11.36-.28.59-.07.33-.14.66-.37.88-.08.03-.13.04-.18.01l-.71-.15c-.16-.04-.3-.14-.47-.13-.27-.1-.54-.16-.8-.22-.22-.06-.42-.15-.64-.19-.16-.01-.31-.06-.43-.13-.23-.09-.47-.14-.7-.21-.22-.06-.45-.11-.68-.15-.14-.02-.29-.07-.44-.1-.25-.07-.52-.13-.76-.22-.28-.12-.58-.2-.88-.27-.38-.09-.76-.22-1.15-.29-.4-.08-.78-.22-1.17-.33-.09-.02-.17-.05-.26-.05-.16-.03-.27-.09-.41-.14-.03-.09-.03-.14,0-.2Z"/>
          <path class="cls-1" d="M20.57,35.61c.09-.14.21-.26.28-.4.13-.31.36-.56.48-.87.07-.15.18-.29.29-.43.04-.04.05-.11.08-.17.03-.05,0-.04.07-.08.03-.18.19-.26.21-.36.06-.03.11-.02.17,0,.05.09.16.15.26.19.17.05.29.19.46.22.07.13.24.12.32.24-.02.14-.1.25-.16.36-.07.15-.13.3-.23.41-.14.18-.25.36-.36.54-.01.02-.04.04-.03.09l.23.14c.09.07.21.11.3.2.02.01.04.02.08.03.1.04.21.09.26.21.12.03.25.07.35.18.11,0,.2.05.29.11l.91.57c.11-.18.14-.25.24-.41.05-.08.19-.22.25-.38.07-.04.09-.15.15-.2.08.08.24.15.31.21.14.1.29.1.4.25.03.03.11.05.17.08t.04.04s0,0,.04,0c.07.07.14.13.19.23-.18.21-.22.47-.38.68-.07.09-.12.19-.18.29.24.2.51.34.77.46.06.05.03.1.04.15.07.03.14.04.2.08.09.04.18.1.26.16.06.06.15.14.26.15.1.02.16.07.24.12.2.15.44.23.67.38.16-.21.28-.43.42-.66.14-.2.23-.41.38-.65,0,0,.07-.07.14-.05.2.08.38.24.58.36.14.07.26.15.41.2.15.03.14.04.2.17-.17.37-.43.68-.65,1.02-.25.43-.54.85-.75,1.3-.07.14-.14.29-.32.33-.19-.03-.33-.18-.49-.28-.15-.09-.31-.17-.45-.28-.23-.17-.49-.28-.72-.46-.19-.13-.41-.23-.58-.38-.26-.21-.57-.37-.84-.55-.25-.17-.51-.3-.75-.47-.14-.09-.28-.2-.43-.28-.27-.15-.51-.34-.79-.5-.25-.17-.53-.33-.79-.49-.17-.09-.32-.2-.47-.32-.13-.12-.31-.19-.48-.27-.16-.08-.29-.21-.44-.29-.12-.06-.21-.13-.34-.17-.1-.04-.17-.12-.27-.17-.13-.08-.3-.1-.41-.23-.02-.03-.08-.02-.13-.04-.08-.11-.05-.21.02-.32Z"/>
          <path class="cls-1" d="M33.24,33.78c.09.22.19.45.17.71-.02.12-.03.22-.03.35,0,.09-.05.16-.11.23v.13s-.04.06-.05.1c-.05.11-.11.19-.16.3-.14.15-.21.29-.33.46-.09.11-.3.23-.41.32-.05.04-.1.05-.16.08-.22.08-.41.23-.66.25-.16,0-.32,0-.49-.02-.05-.01-.07-.06-.13-.08-.03,0-.06.04-.12.02-.55-.48-1.12-.84-1.68-1.39-.07-.12.05-.22.11-.34.04-.07.11-.12.17-.18.14-.15.25-.25.35-.43.04-.09.08-.1.17-.13.06.08.12.1.21.16.05.03.11.07.14.15.06.08.09.06.17.11.12.09.25.19.35.31.07.07.13.12.21.15.04.01.07.03.1.05.15.15.36.19.55.09.05-.02.1-.03.15-.06l.17-.2c.11-.11.15-.24.08-.39-.02-.01-.06-.02-.08-.03-.04-.16-.17-.22-.28-.31-.15-.13-.46-.41-.64-.5-.05-.03-.11-.06-.15-.06-.46-.09-.9-.23-1.37-.28-.3-.04-.6-.15-.91-.2-.33-.04-.65-.18-.99-.16-.08,0-.16-.04-.24-.06-.14-.04-.29-.04-.42-.1-.18-.09-.39-.1-.58-.17-.08-.04-.5-.11-.67-.22-.19-.11-.3-.22-.47-.36-.1-.07-.15-.17-.25-.22-.08-.04-.14-.09-.17-.16-.05-.12-.14-.22-.22-.32-.12-.15-.19-.34-.21-.54-.01-.15-.07-.3-.04-.46s.03-.35.15-.49c.07-.08.11-.2.16-.31.07-.17.18-.33.34-.42.05-.04.07-.1.11-.14.16-.14.32-.3.52-.42.17-.12.37-.17.58-.2.12-.02.26-.05.38-.04.17.04.37.03.53.14.06.04.11.05.13.12.13.06.26.13.3.23.35.35.7.66,1.09.91,0,.06,0,.1-.04.12-.02,0-.03.02-.04.03-.1.25-.35.38-.49.59-.08.12-.18.2-.23.33-.16.02-.28-.02-.37-.15-.02-.05-.09-.06-.13-.1-.21-.14-.37-.33-.56-.48-.1-.07-.18-.15-.28-.22-.06-.05-.15,0-.21-.08-.11.13-.26.17-.37.32,0,.1-.13.2-.17.33.05.04,0,.12.06.19.1.13.32.33.47.43.12.06.21.15.31.23.05.04.11.07.18.09.12.04.16.05.26.11.19.08.3,0,.5.06.03,0,.07,0,.08,0,.21.08.44.12.65.16.15.03.28.03.42.04.18.03.34.09.51.12.32.04.56.03.88.1.24.04.36.03.59.08.25.04.8.18,1.04.33.08.05.17.09.24.15.11.11.32.24.43.34.14.11.24.26.38.37.14.1.25.25.39.37.09.12.07.12.11.18Z"/>
          <path class="cls-1" d="M28.88,26.56c-.08-.15-.21-.27-.36-.38-.06-.05-.09-.17-.17-.18-.1-.02-.12-.08-.16-.14l.42-.38c.05-.05.05-.12.13-.18.11-.07.19-.17.31-.23.03-.03.02-.07.03-.09l.13-.04c0-.09.07-.13.14-.18.27-.23.5-.52.76-.75.18-.17.36-.32.54-.5.11-.1.23-.21.33-.32.14-.04.22.05.25.12.08.15.21.24.31.37.13.17.28.31.43.46.03.05-.05.08-.07.13-.11.1-.15.17-.25.23-.13.07-.19.19-.26.29-.08.12-.24.15-.27.32.14.1.24.21.33.34.1.15.19.29.33.4.11.11.21.23.31.32.03.04.03.07.03.1l.08-.02c.01.07.04.12.12.16s.14.12.21.19c.11.14.19.32.33.43.02.02,0,.06.01.08.02,0,.05,0,.06.01.26.32.58.57.87.91.05.11.18.23.3.36.07.08.14.14.2.24.04.08.13.14.18.2.1.09.16.19.24.28.15.17.32.33.5.49-.02.08.11.09.11.17.13.06.17.19.29.28.09.08.16.19.25.26.04.03.05.05.07.1.02.06.06.12.13.11.12.18.26.32.39.45.14.14.25.31.43.41.03.14-.1.17-.16.26-.06.11-.14.2-.26.25-.05.01-.06.07-.09.11h-.08c-.12.18-.25.33-.48.38-.21-.05-.27-.33-.47-.38-.12-.17-.27-.33-.42-.48-.13-.15-.25-.33-.39-.49-.13-.15-.31-.27-.39-.49,0,0-.06-.03-.09-.06-.2-.28-.44-.54-.66-.8-.17-.2-.37-.37-.51-.57-.05-.08-.13-.14-.21-.21-.11-.07-.17-.19-.28-.29-.18-.19-.35-.39-.52-.58-.08-.09-.15-.18-.22-.28-.1-.13-.23-.25-.34-.38-.14-.17-.3-.33-.44-.51-.05-.08-.14-.11-.18-.22-.04-.08-.13-.12-.17-.19-.09-.1-.18-.2-.26-.32-.06-.09-.15-.15-.23-.24-.22.31-.53.5-.76.81-.15.03-.28,0-.37-.18Z"/>
          <path class="cls-1" d="M33.42,21.31c.27-.17.51-.33.74-.48.23-.15.46-.32.69-.45.25-.14.44-.39.74-.45.04-.07.1-.11.18-.15.22-.05.46-.07.71-.06.17.07.38.12.54.25.17.15.32.29.45.48.17.24.34.48.51.74.09.15.18.29.25.46.08.18.17.34.33.46.06.05.11.11.12.19,0,.09.08.16.16.22.04.2.21.37.23.6.02.22-.02.42-.03.63-.03.23-.18.39-.31.58.02.03.02.07.05.09.37.35.74.71,1.17,1.02.28.21.55.44.82.67.08.08.17.15.28.23.16.12.32.24.45.38.08.08.17.14.27.21.2.13.5.35.69.52l-.03.11c-.08.04-.18.07-.26.12-.09.06-.15.14-.23.18-.25.12-.45.33-.71.42-.04-.02-.09-.03-.12-.07-.13-.2-.42-.4-.61-.53-.18-.12-.29-.3-.46-.43-.09-.07-.16-.15-.24-.23-.37-.29-.66-.65-1.03-.95-.22-.18-.42-.39-.64-.57-.12-.1-.29-.18-.46-.28.06.15.13.24.19.33.11.17.21.34.34.48.13.17.22.38.35.55.14.16.22.35.35.52.11.16.23.32.34.48.12.19.22.38.38.54.05.15.2.22.28.35.08.13.16.25.24.36.02.03.03.07.06.1-.35.33-.76.54-1.15.81-.2-.06-.25-.22-.36-.39-.06-.13-.14-.25-.22-.37-.21-.34-.44-.67-.67-1-.07-.1-.15-.18-.21-.29-.06-.11-.12-.19-.18-.28-.1-.12-.14-.27-.24-.4-.13-.18-.22-.39-.37-.58-.16-.19-.27-.4-.41-.61-.13-.2-.27-.39-.4-.57-.18-.27-.35-.55-.53-.81-.04-.06-.06-.12-.09-.18-.09-.15-.15-.34-.32-.45-.05-.03-.07-.11-.11-.15-.11-.12-.17-.29-.29-.41-.1-.12-.18-.27-.28-.41-.08-.13-.18-.25-.26-.38-.09-.14-.18-.29-.27-.43-.12-.19-.26-.38-.42-.57-.03-.08-.04-.14-.02-.18ZM35.94,21.33c-.21.11-.36.27-.58.34-.01.11.08.19.14.29l.09.14c.12.19.21.38.34.57.07.1.14.21.18.32.04.1.11.18.17.27.07.1.1.22.22.28.02.01.04.04.05.08.04.06.06.13.12.19.08.05.08.16.17.2.08-.03.17-.04.24-.09.1-.04.19-.12.28-.17l.18-.26v-.42s-.68-1.02-.68-1.02c-.17-.23-.37-.43-.56-.65l-.09-.05h-.28Z"/>
          <path class="cls-1" d="M44.55,24.78c-.2.08-.21.12-.15.32.1.24.16.49.23.74.03.13.07.27.09.4,0,.05,0,.11-.08.11-.11.01-.19.09-.28.16-.21.13-.44.23-.67.31-.04,0-.07.02-.09.04-.08.06-.2.07-.22.04-.04-.03-.12-.24-.14-.36-.01-.16-.08-.3-.12-.46-.03-.13-.08-.25-.09-.37-.04-.17-.1-.32-.16-.47-.08-.26-.11-.52-.19-.78l-.1-.32c-.08-.25-.19-.5-.21-.76,0-.05-.02-.1-.05-.13-.11-.24-.16-.49-.25-.73-.08-.24-.14-.47-.25-.69-.02-.05-.04-.11-.04-.18,0-.08-.04-.14-.06-.22-.06-.19-.15-.38-.19-.59-.02-.11,0-.26-.06-.33-.14-.21-.07-.28-.21-.68-.05-.11-.1-.24-.14-.35-.04-.15-.07-.26-.15-.43-.07-.16-.11-.43-.11-.51-.04-.03-.2-.52-.3-.79-.03-.13-.06-.29-.09-.42,0-.05,0-.1,0-.14.01-.03.02-.06.07-.07.08,0,.23-.06.3-.1.1-.06.21-.07.31-.13.03-.02.07-.03.09-.06.08-.09.18-.14.29-.16.11-.02.2-.07.3-.11.03-.01.22-.12.27-.1.06.02.08,0,.14.04.05.04.1.16.14.22.1.16.2.34.29.5.04.06.06.14.12.18.05.04.04.15.12.15.13.23.31.42.42.65.05.13.14.25.21.37.14.22.25.46.41.67.16.24.31.5.45.74.03.04.05.08.09.11.12.15.2.32.29.49.06.1.12.2.19.29.1.14.17.29.26.43l.24.34c.11.17.24.33.33.52.06.13.14.25.23.36.05.05.08.12.11.18.04.11.11.2.19.29.09.09.13.19.19.29l.39.61c.13.2.28.39.4.59.06.1.1.18.18.24.05.08.17.21.1.24-.02.01-.05.05-.08.05-.15-.04-.24.14-.38.13h-.01c-.13.12-.29.13-.44.21l-.28.16s-.04,0-.05,0q-.16.11-.23-.05l-.11-.15s-.07-.1-.07-.16c-.02-.1-.1-.18-.17-.25-.08-.11-.13-.21-.2-.32-.06-.06-.09-.14-.16-.21-.2.09-.63.35-.85.42ZM44.26,22.36s0-.06-.05-.08c-.03-.01-.04-.06-.05-.08-.09-.14-.47-.79-.57-.91-.05-.14-.1-.22-.25-.42-.03-.06-.36-.67-.41-.71-.03-.03-.13-.25-.15-.27-.06-.13-.16-.23-.22-.3-.02-.02-.03-.01-.05,0,0,.04,0,.07.01.11l.16.45c.04.07.04.15.09.23.02.17.24.74.28.89.06.23.43,1.14.46,1.38l.02.03c.06.05.09.11.08.18,0,.09.06.14.09.2.08.17.09.37.15.55.21-.11.69-.27.86-.44-.16-.28-.3-.55-.47-.81Z"/>
          <path class="cls-1" d="M51.61,22.54c0,.35.13.7.21,1.06l-.06.1c-.1-.02-.18.05-.28.02-.11.1-.23.13-.37.13-.04,0-.07,0-.11.02-.33.13-.67.24-1.02.34-.09.02-.2.06-.3.1-.19.07-.39.15-.6.19-.05.01-.09,0-.14.02-.05-.08-.1-.18-.08-.3,0-.06-.02-.13-.05-.18-.11-.24-.17-.49-.25-.74-.15-.4-.25-.81-.38-1.21-.08-.27-.1-.56-.21-.83-.09-.22-.12-.47-.22-.7-.13-.32-.21-.67-.32-.99-.07-.24-.13-.48-.15-.72-.02-.15-.08-.3-.14-.44-.08-.21-.16-.42-.19-.66-.09-.31-.19-.62-.29-.94-.08-.32-.22-.64-.25-.98-.17-.29-.2-.64-.33-.97.45-.17.89-.36,1.35-.47.07.16.14.3.11.47,0,.07.07.1.08.16.06.3.23.56.29.86.04.12.07.26.14.38.05.07,0,.18.07.24.02.23.08.45.13.66.12.41.21.81.36,1.21.1.24.17.49.25.74.08.26.16.52.21.79.03.15.06.3.12.45.05.16.07.32.11.49.03.14.1.27.15.41.04.15.11.29.13.44,0,.04.06.04.07.1-.04.15.12.3.07.44.06.18.08.37.16.51.06.04.1.02.15,0l.75-.22c.07-.02.14-.07.22-.04.01,0,.04,0,.04-.01.11-.06.2-.11.34-.1.08.04.17.07.22.17Z"/>
          <path class="cls-1" d="M51.7,13.33c.12-.04.27-.03.39-.11.01,0,.05,0,.06,0q.11.01.18-.05c.23.06.41-.14.64-.11.04.02.08.05.14.08-.05.13.09.24.02.37-.02.06.03.11.03.17,0,.28.12.53.14.79.02.32.14.61.17.92.03.26.09.51.16.75.04.15.06.31.05.46-.01.12.03.23.06.34.06.17.06.34.1.51l.06.3c.02.07.1.13.03.21-.02.03.03.03.03.05.04.09.06.17,0,.27,0,.01.04-.02.06,0-.02.16.14.3.05.46.1.16.1.33.11.5,0,.04.04.02.06.06l.18.69c.05.22.08.44.13.66.07.32.14.65.2.98.04.19.06.38.13.56.07.17.1.35.12.54,0,.05,0,.11.03.15.02.04,0,.08-.04.13-.43-.05-.83.14-1.24.19l-.21-.04c-.06-.11-.07-.21-.09-.33-.04-.23-.09-.45-.11-.69-.02-.16-.06-.33-.09-.49-.04-.29-.11-.57-.14-.86-.01-.07-.04-.14-.05-.21-.02-.18-.02-.36-.09-.52-.08-.24-.08-.48-.16-.71-.03-.11-.02-.25-.07-.36-.07-.17-.05-.35-.11-.52-.05-.14-.04-.29-.08-.44-.07-.22-.1-.44-.14-.66l-.12-.65c-.05-.27-.08-.53-.18-.78-.05-.11-.02-.25-.05-.36-.04-.2-.05-.4-.13-.6-.03-.1-.04-.22-.03-.33,0-.08,0-.15-.03-.23-.08-.26-.14-.44-.2-.72-.02-.06,0-.21-.05-.26-.02-.1.04-.08.08-.11Z"/>
          <path class="cls-1" d="M58.37,21.13c-.21,0-.25.04-.26.24,0,.26-.03.51-.06.77-.02.13-.03.27-.06.41,0,.05-.04.1-.11.08-.11-.03-.21.01-.32.04-.25.04-.49.05-.74.05-.04,0-.07,0-.09,0-.09.03-.21,0-.21-.05-.03-.04-.03-.27,0-.39.05-.16.04-.31.05-.48.02-.13.02-.26.05-.38.03-.17.03-.33.03-.5.02-.27.09-.53.11-.8l.03-.33c.02-.26,0-.53.08-.78,0-.05.02-.1,0-.14-.02-.26.03-.51.04-.77,0-.25.04-.49.03-.73,0-.06,0-.12.02-.18.03-.07.02-.14.02-.23.01-.2,0-.41.03-.62.02-.11.09-.24.06-.33-.05-.24.04-.29.05-.71,0-.12,0-.26,0-.38.01-.15.03-.26.02-.45-.01-.18.06-.44.09-.51-.03-.05,0-.56,0-.84.02-.13.05-.29.07-.43,0-.05.03-.1.05-.13.02-.03.04-.05.09-.04.07.03.24.03.32.01.12-.02.22,0,.33,0,.04,0,.08,0,.11-.02.1-.05.22-.06.33-.04.11.02.21,0,.32,0,.04,0,.25-.03.28,0,.05.04.07.03.11.09.03.06.04.19.05.26.04.19.06.39.08.57.02.07,0,.15.05.21.03.06-.01.15.06.18.04.26.14.5.15.76,0,.14.04.28.06.42.05.26.07.52.14.77.06.28.11.57.15.85.01.05.02.09.04.14.06.18.07.37.09.56.02.12.04.24.07.34.05.16.06.33.09.49l.1.41c.04.2.11.39.12.61,0,.14.04.28.09.42.03.07.03.14.04.21,0,.12.03.22.07.34.05.12.05.22.07.34l.14.71c.05.23.12.47.16.7.02.12.02.2.08.29.02.09.09.25,0,.26-.02,0-.07.03-.09.02-.12-.09-.27.04-.4-.02h-.01c-.16.06-.32,0-.48.03l-.32.04s-.04-.02-.05-.02q-.19.05-.2-.13l-.05-.17c-.02-.06-.03-.12-.01-.18.02-.09-.02-.2-.07-.29-.03-.13-.04-.25-.07-.37-.03-.08-.03-.16-.07-.26-.22.01-.72.09-.94.08ZM58.98,18.76s.02-.06-.02-.09c-.03-.02-.02-.07-.02-.09-.03-.16-.15-.9-.2-1.05,0-.15-.02-.25-.08-.48,0-.07-.09-.75-.12-.81-.01-.04-.03-.28-.04-.3,0-.14-.06-.27-.09-.36-.01-.02-.03-.02-.05-.02-.02.04-.03.06-.03.11l-.02.47c.02.08-.01.16,0,.25-.05.17-.05.77-.06.93-.03.24-.02,1.22-.08,1.45v.04c.04.07.05.14.01.2-.03.09,0,.15.01.22.01.19-.05.38-.06.57.24-.03.75,0,.96-.1-.04-.32-.07-.62-.14-.92Z"/>
          <path class="cls-1" d="M63.52,12.42c.13.04.25.09.38.06.04,0,.07,0,.11,0h.37c.19,0,.27.03.44.09l.04-.04c.09.01.23.15.26.26.02.06.03.12.02.18-.06.23.02.45.03.68,0,.12,0,.22,0,.34-.01.28.11.57.1.85,0,.33.1.66.13,1,0,.18,0,.36,0,.53.05.43.06.86.15,1.28.04.19.03.39.06.59.02.05.03.11.04.17.05-.15.12-1,.09-1.12.08-.13.03-.29.08-.43.04-.13.01-.27.07-.4-.04-.05-.04-.12-.03-.19.05-.43.09-.87.12-1.3.03-.41.1-.82.09-1.24,0-.21.05-.43.06-.66,0-.12,0-.24-.1-.35.07,0,.1-.04.12-.11.45.04.89.08,1.37.17.06.1.06.25.02.41-.03.08-.04.17-.05.27-.03.21-.06.41-.07.61-.02.21-.05.41-.05.62,0,.1-.03.21-.05.31-.04.22-.05.44-.06.67-.01.28,0,.58-.08.87-.02.06.01.11,0,.17-.03.31-.06.61-.08.92-.02.26-.05.5-.04.77,0,.14.02.3-.04.43-.05.14-.03.28-.06.42l-.07.44c-.03.2-.08.39-.08.58,0,.38-.07.75-.07,1.12,0,.06-.03.08-.04.12.04.42-.02.84-.03,1.27-.08.13-.3.12-.42.08-.06-.02-.1-.04-.15-.05-.05-.01-.08-.02-.13-.01-.15-.02-.3-.04-.44-.09-.05-.02-.09-.03-.13-.01-.04,0-.06.03-.1.03-.05.02-.09-.02-.14-.04-.06-.03-.13.01-.17-.01-.01,0-.09-.17-.09-.16.07-.09.08-.18.06-.27-.07-.25-.02-.51-.06-.76-.02-.16-.06-.31-.07-.47-.03-.26-.09-.52-.12-.78-.02-.31-.1-.6-.13-.91,0-.17-.01-.34,0-.52,0-.12-.01-.24-.04-.36-.06-.23-.08-.48-.11-.72-.02-.26-.12-.53-.08-.81,0-.01,0-.04-.03-.07-.05.14-.05.24-.04.34.01.14-.01.27-.04.4-.02.07-.01.14,0,.21.03.11.04.22-.06.3.07.02.05.09.05.11-.03.28-.06.55-.1.83-.02.19,0,.38-.02.57-.01.12-.04.22-.04.34,0,.27-.03.54-.05.8-.02.18-.03.34-.06.5-.04.27-.06.54-.04.81,0,.04,0,.07,0,.11,0,.11-.04.21.03.3-.06.1-.14.14-.25.13l-.4-.04c-.21-.02-.43,0-.64-.04-.12-.02-.16-.04-.18-.16-.02-.18-.03-.35.05-.52l.11-1.14s.02-.1,0-.15c-.04-.08.01-.13.03-.18,0-.05-.03-.09-.02-.12,0-.11.03-.21.05-.3,0-.09,0-.19,0-.28.03-.28.11-.55.11-.82-.02-.33.04-.65.03-.98-.01-.26.08-.53.1-.79.01-.15.06-.3.04-.46,0-.06.03-.09.04-.15.04-.3.01-.62.06-.92,0-.06,0-.11,0-.17,0-.28.03-.57.06-.85.01-.12.03-.23.01-.35,0-.04,0-.07,0-.11.07-.27.06-.54.1-.81.02-.13-.03-.28.01-.39.06-.14.03-.27.1-.43.02,0,.06-.02.09-.03Z"/>
          <path class="cls-1" d="M74.99,18.99c0,.05,0,.13-.06.18-.08.08-.07.2-.13.29-.06.08-.09.19-.12.3-.02.08-.03.15-.08.22-.04.06,0,.15-.09.19.04.04.02.08,0,.13l-.54,1.46c-.1.26-.21.51-.32.78-.03.08-.09.16-.12.24-.1.25-.15.51-.24.77-.05.12-.08.25-.13.37-.04.11-.06.24-.09.36-.1.11-.23,0-.31.08-.1-.08-.22-.06-.27-.17-.15.06-.27.02-.4-.06-.13-.08-.28-.16-.42-.18-.11-.14-.04-.29.03-.43.07-.15.13-.3.19-.46l.32-.8c.08-.2.13-.4.21-.59.13-.29.22-.61.35-.9.08-.17.14-.35.2-.53.09-.28.23-.49.29-.8.11-.24.29-.68.41-.74-.02-.07.02-.21.11-.35.1-.15.13-.44.2-.59.11-.29.25-.7.37-.87.12-.28.15-.5.26-.79,0,0,.02-.09.15-.36.04-.07.06-.14.04-.2.19-.32.32-.66.46-1.01l.14-.04c.11.09.27.16.42.22.25.1.52.2.77.31.16.07.34.15.51.16.03.08,0,.13,0,.19-.03.2-.06.41-.11.59l-.13.51s-.03.01-.03.04c.04.21-.05.4-.08.59-.04.3-.12.59-.16.88-.02.22-.1.43-.15.64-.02.16-.05.32-.06.48,0,.19-.05.39-.1.57-.06.19-.08.4-.14.59-.06.19-.08.39-.12.57-.04.12-.04.27-.06.41-.06.36-.13.71-.18,1.06.11-.11.15-.28.25-.41.09-.13.19-.26.25-.4.06-.15.19-.27.24-.41.05-.16.22-.26.2-.44.08-.02.12-.07.15-.13.06-.12.13-.23.17-.35.05-.13.16-.24.21-.38.04-.11.1-.2.15-.29.05-.09.11-.16.17-.25.14-.22.26-.47.41-.69.07-.12.13-.26.23-.35.05-.07.09-.16.12-.23.12-.22.21-.45.36-.65.14-.2.22-.42.36-.62.07-.11.12-.25.21-.36.03-.05.03-.11.07-.16.07-.04.07-.09.17-.08.03.09.29.17.19.13-.12-.05.25.07.36.14.2.1.41.21.64.24.06,0,.13.02.18.07.1.08.14.04.23.1.04.03.13,0,.14,0,.07.05.06.14.01.16-.11.09-.14.23-.21.36-.11.21-.2.44-.29.66-.07.15-.12.32-.19.48-.12.35-.26.69-.41,1.03-.12.31-.25.61-.38.92-.11.28-.21.58-.33.86-.1.25-.23.49-.31.76-.09.27-.2.54-.3.81-.05.15-.13.29-.17.44-.04.15-.13.28-.16.43-.01.06-.08.07-.08.15,0,.06-.04.11-.05.17,0,.05-.06.04-.08.07,0,.03.04.04.02.07-.13.34-.26.69-.39,1.03-.1.29-.2.57-.31.86-.02.05-.05.12-.11.16-.21-.02-.39-.13-.59-.22-.03-.01-.07-.04-.11-.04-.13.01-.25-.07-.38-.09-.13-.01-.18-.12-.13-.25.09-.22.15-.44.23-.65.09-.24.18-.49.27-.72.13-.29.25-.59.36-.87.13-.34.27-.69.4-1.04.08-.2.14-.4.22-.6.05-.13.12-.26.16-.4.04-.13.11-.27.17-.42.07-.21.13-.43.24-.64.05-.08.06-.18.11-.28-.1.07-.16.18-.21.27-.13.19-.26.38-.38.57-.09.16-.14.33-.22.47-.13.19-.23.39-.33.61-.06.12-.17.2-.23.32l-.34.7c-.03.08-.06.15-.12.18-.03.15-.11.29-.18.4-.15.22-.25.48-.43.73,0,.02,0,.08-.02.12-.1.12-.16.27-.27.39-.15.17-.22.4-.33.61l-.09.04c-.05-.06-.12-.07-.16-.15h-.11c-.06-.05-.12-.08-.19-.1l-.64-.25c-.07-.03-.11-.08-.15-.11-.07-.14.01-.25.03-.37.06-.18.08-.37.12-.56.01-.07.05-.13.07-.2.08-.33.17-.67.25-1.01.06-.25.09-.51.13-.77.05-.26.06-.54.18-.79-.03-.14.03-.28.06-.41.04-.28.11-.53.16-.8.04-.16.07-.33.07-.49,0-.14.04-.28.07-.4.04-.16.05-.33.08-.5-.12.15-.13.36-.25.53Z"/>
          <path class="cls-1" d="M79.67,25.87c.12-.23.23-.46.39-.66.1-.14.19-.3.27-.46.03-.04,0-.08.02-.12.09-.03.14-.11.2-.18.11-.18.19-.37.32-.53.17-.2.32-.42.42-.66.08-.17.22-.32.33-.49.16-.21.31-.42.42-.66.05-.12.14-.23.22-.33.18-.25.34-.51.48-.77.04-.07.1-.13.13-.19.13-.17.17-.38.32-.53.12-.12.23-.26.31-.42.06-.12.13-.24.21-.36.06-.09.11-.2.2-.29.09-.1.14-.25.19-.38.06-.14.18-.22.26-.31.07-.01.1,0,.14.05.11.09.22.18.35.26.05.02.06.05.04.09.05.03.06,0,.09-.01.16.15.37.23.55.33,0,.12-.04.2-.09.26-.19.24-.35.51-.53.76-.21.29-.38.61-.57.91l-.1.16c-.15.24-.34.47-.48.73-.09.15-.18.31-.26.46-.24.42-.52.81-.8,1.21-.15.22-.29.46-.45.68-.11.14-.2.32-.29.49-.04.07-.14.11-.12.21-.12.08-.16.22-.23.33-.17.25-.35.51-.49.78-.05.1-.11.2-.18.26-.05.05-.05.11-.08.16.17.3.4.52.75.61l.18-.04c.21-.33.44-.66.61-1.02.04-.1.12-.19.17-.29.11-.17.23-.34.3-.53.05-.12.15-.22.25-.33.08-.08.11-.17.16-.26.12-.2.23-.41.39-.59.1-.12.17-.25.26-.39.12-.17.22-.36.37-.53.13-.16.21-.34.33-.52.03-.04.07-.08.1-.12.17-.23.31-.47.44-.73.09-.19.21-.37.33-.53.11-.13.21-.26.26-.42.03,0,.05.03.08.02.01-.06-.04-.08-.06-.11.15-.22.32-.44.43-.69.16-.35.19-.3.47-.18.14.06.28.16.4.25.08.07.18.11.27.17.09.04.16.13.28.12.04.07.05.13.05.18-.09.21-.28.36-.38.56-.12.21-.22.42-.36.6-.07.09-.16.18-.21.27-.08.11-.17.21-.24.32-.08.13-.19.23-.23.37-.02.08-.1.13-.14.2l-.69,1.1c-.14.25-.27.52-.42.76-.13.21-.27.43-.44.63-.15.17-.27.36-.35.58-.01.05-.04.1-.06.13-.15.11-.21.29-.3.44-.24.34-.44.7-.68,1.04-.1.13-.19.27-.26.42-.13.2-.26.44-.52.51-.05.01-.09.04-.14.07-.08.04-.18.04-.28.05-.27.01-.5-.12-.75-.18-.31-.07-.57-.25-.82-.43-.08-.07-.16-.14-.23-.23-.07-.09-.17-.12-.24-.22-.14-.17-.27-.35-.38-.53-.07-.11-.08-.27-.1-.41-.03-.19-.01-.38,0-.58.11-.06.16-.18.2-.29Z"/>
          <path class="cls-1" d="M87.1,31.92c-.22.09-.45.19-.71.15-.12-.02-.22-.03-.35-.03-.08,0-.15-.05-.23-.12h-.13s-.06-.04-.1-.06c-.11-.05-.18-.11-.3-.16-.14-.14-.28-.21-.45-.34-.11-.09-.22-.3-.32-.41-.04-.05-.05-.11-.08-.16-.08-.22-.22-.41-.24-.66,0-.16,0-.32.03-.49.01-.05.06-.07.08-.13,0-.03-.04-.06-.02-.12.49-.55.86-1.11,1.41-1.66.12-.07.22.05.33.12.07.04.12.12.18.17.14.14.25.26.42.36.09.04.1.08.13.17-.08.06-.1.12-.16.2-.03.05-.08.11-.15.14-.08.06-.06.09-.11.17-.09.12-.2.25-.32.35-.07.06-.12.13-.15.21-.01.03-.03.07-.05.1-.16.15-.2.36-.1.55.02.05.03.1.06.15l.2.17c.11.11.24.16.39.09.02-.02.02-.06.04-.08.16-.04.22-.17.31-.27.13-.15.42-.45.51-.63.03-.05.06-.11.06-.15.1-.46.24-.9.3-1.36.04-.3.16-.6.22-.9.05-.33.19-.64.18-.99,0-.08.05-.16.07-.24.04-.14.04-.29.11-.42.1-.18.1-.39.18-.58.04-.08.12-.5.23-.67.11-.18.23-.3.37-.46.07-.1.17-.15.22-.24.04-.08.09-.14.16-.17.12-.05.22-.13.33-.22.15-.12.34-.19.54-.2.15-.01.3-.06.47-.04.16.03.35.03.49.16.08.07.2.11.31.16.17.07.32.19.42.34.04.05.1.07.13.12.14.17.29.33.41.52.11.17.16.37.19.58.02.12.04.26.03.38-.04.17-.04.37-.14.53-.04.06-.05.11-.12.13-.07.13-.13.26-.24.29-.36.34-.67.69-.92,1.07-.06,0-.1,0-.12-.04,0-.02-.02-.03-.03-.04-.25-.11-.38-.36-.58-.5-.12-.08-.2-.19-.33-.23-.02-.16.02-.28.16-.36.05-.02.06-.09.1-.13.14-.2.34-.36.49-.56.07-.1.15-.18.22-.28.05-.06,0-.15.08-.21-.13-.11-.16-.26-.31-.38-.1,0-.19-.14-.33-.18-.05.05-.12,0-.19.06-.13.1-.34.32-.43.47-.07.11-.15.21-.24.31-.05.05-.08.11-.1.18-.04.12-.06.16-.11.26-.09.19-.01.3-.07.5,0,.03,0,.07-.01.08-.08.21-.13.44-.17.65-.03.15-.04.28-.05.42-.03.18-.1.33-.13.51-.04.32-.04.55-.12.88-.05.24-.03.36-.09.59-.05.25-.19.8-.35,1.04-.05.08-.1.17-.16.24-.11.11-.24.32-.35.43-.12.13-.27.24-.37.38s-.26.25-.37.38c-.12.08-.12.07-.18.11Z"/>
          <path class="cls-1" d="M95.56,27.47c.11.12.18.28.3.38.25.22.43.5.69.71.13.11.23.26.33.41.03.05.09.08.14.13.04.04.03.02.06.09.16.08.19.26.28.3.01.07-.02.11-.04.17-.1.03-.19.1-.25.19-.09.14-.26.22-.34.38-.14.03-.19.2-.32.24-.13-.06-.21-.16-.3-.25-.13-.11-.25-.21-.33-.34-.13-.18-.27-.34-.41-.5-.02-.02-.03-.05-.08-.05l-.21.18c-.1.07-.17.17-.28.23-.02.02-.04.03-.05.06-.06.09-.14.17-.28.18-.07.1-.14.22-.27.28-.04.1-.11.18-.19.25l-.81.71c.14.16.2.2.32.35.06.07.15.24.29.35.02.08.12.13.15.2-.1.05-.21.19-.29.24-.14.11-.18.25-.36.31-.03.02-.08.09-.13.14t-.05.03s0,0-.01.04c-.09.04-.17.1-.28.12-.14-.24-.39-.35-.54-.56-.07-.1-.15-.17-.23-.26-.26.17-.48.39-.67.6-.07.05-.11,0-.16,0-.04.06-.08.12-.14.17-.06.07-.14.14-.23.2-.08.04-.17.11-.21.2-.05.09-.12.13-.19.2-.2.15-.35.35-.55.53.15.21.33.4.5.59.16.19.33.34.52.55,0,0,.04.09,0,.15-.14.17-.34.3-.51.45-.11.11-.21.2-.31.33-.07.13-.08.12-.22.15-.3-.27-.52-.61-.79-.91-.34-.36-.65-.76-1.02-1.09-.11-.11-.24-.22-.22-.4.09-.17.27-.27.41-.39.13-.12.25-.25.4-.35.23-.17.41-.39.65-.55.18-.15.34-.33.53-.45.27-.19.51-.43.77-.64.23-.19.44-.4.67-.58.12-.11.27-.21.39-.33.22-.21.47-.4.71-.61.24-.19.47-.41.7-.62.13-.13.28-.25.44-.36.16-.09.27-.24.4-.38.12-.12.28-.22.41-.34.09-.09.19-.16.26-.28.06-.09.17-.13.24-.21.12-.1.18-.26.34-.33.04-.02.05-.07.07-.11.13-.05.22.01.3.11Z"/>
          <path class="cls-1" d="M92.06,36.81c.21-.16.4-.32.63-.44.15-.09.3-.19.44-.3.04-.03.02-.07.07-.1.09.01.17-.04.26-.08.18-.12.33-.25.51-.34.24-.11.46-.24.66-.42.15-.12.33-.2.51-.3.23-.12.46-.24.66-.42.1-.09.23-.15.34-.21.27-.15.52-.33.76-.5.07-.05.15-.08.21-.12.19-.1.31-.27.51-.34.16-.06.32-.14.46-.25.1-.08.22-.16.34-.24.09-.06.18-.13.3-.18.12-.05.23-.17.34-.26.12-.1.26-.12.37-.17.06.01.09.05.11.1.06.13.12.26.21.39.04.03.03.08,0,.1.03.05.06.02.09.03.08.2.24.37.36.53-.04.11-.12.16-.2.2-.28.14-.53.32-.8.46-.31.17-.6.39-.9.59l-.16.1c-.24.15-.51.29-.75.46-.15.1-.29.2-.43.31-.39.28-.82.52-1.24.76-.23.14-.46.3-.7.43-.16.08-.32.21-.47.32-.07.04-.17.04-.19.14-.14.02-.24.13-.35.2-.26.16-.53.31-.77.5-.08.07-.18.13-.27.17-.07.03-.09.07-.14.11.03.35.15.64.42.87l.18.04c.33-.21.68-.41.99-.67.08-.08.19-.12.27-.19.17-.11.35-.22.5-.36.1-.09.23-.14.37-.2.1-.04.17-.11.26-.17.2-.13.38-.28.6-.38.14-.06.26-.16.4-.25.18-.11.36-.23.56-.32.18-.09.34-.22.52-.33.04-.03.1-.05.14-.06.25-.14.48-.3.71-.47.17-.14.34-.25.52-.34.15-.07.3-.15.42-.27.02.01.03.05.07.06.04-.05,0-.1,0-.12.23-.14.48-.27.68-.44.29-.25.3-.19.5.04.1.12.18.26.26.4.05.1.12.18.17.27.06.07.09.18.2.22,0,.08-.01.13-.03.19-.17.15-.4.21-.58.35-.19.14-.38.29-.58.39-.11.05-.22.1-.31.16-.12.07-.25.12-.36.19-.13.08-.27.13-.37.24-.06.06-.14.08-.21.12l-1.09.71c-.23.17-.46.36-.7.51-.21.14-.43.28-.66.39-.21.09-.4.22-.56.38-.03.03-.08.08-.11.09-.19.04-.31.17-.46.27-.36.21-.69.45-1.05.66-.15.08-.28.17-.42.27-.2.13-.42.29-.68.25-.05-.01-.1,0-.15,0-.1,0-.18-.04-.27-.08-.25-.1-.4-.31-.61-.48-.25-.19-.41-.46-.56-.73-.05-.1-.09-.2-.12-.31-.03-.11-.11-.18-.12-.3-.06-.22-.1-.43-.12-.64-.01-.13.04-.28.08-.42.05-.19.15-.35.25-.53.12,0,.22-.1.3-.18Z"/>
          <path class="cls-1" d="M105.05,42.64c.1.14.14.3.18.45.05.15.13.29.13.46.12.1.19.23.14.42-.03.05-.1.07-.15.09l-2.49,1.04c-.1.04-.18.08-.3.08-.07,0-.15.05-.21.08-.35.13-.7.28-1.04.44-.22.09-.41.21-.62.31l-1.35.57c-.23.1-.46.18-.67.3-.17.11-.36.19-.53.26-.11.05-.21.08-.31.11-.1.04-.18.08-.28.1-.27.08-.54.17-.77.32-.15.1-.31.14-.48.16-.11-.07-.15-.18-.19-.28-.04-.1-.1-.2-.13-.3-.05-.18-.12-.36-.22-.52-.01-.03-.02-.08-.02-.11.05-.09.14-.1.2-.13.21-.11.44-.16.63-.3.06-.04.15-.04.22-.05.13-.05.25-.09.36-.19.03-.03.07-.05.11-.07.28-.1.55-.24.84-.32.1-.03.19-.1.28-.14l2.68-1.12c.15-.06.3-.13.45-.21-.14,0-.27.05-.4.08-.38.06-.76.14-1.14.24-.36.09-.73.16-1.08.26-.07.02-.14.02-.2.05-.2.08-.4.15-.6.19-.19.03-.37.09-.54.14-.18.04-.35.12-.52.14-.33.06-.65.22-1,.25-.21.01-.43.1-.64.15-.22-.19-.3-.44-.39-.67.01-.09.07-.13.12-.2.13-.03.23-.13.34-.22.2-.13.42-.24.63-.37l.57-.41.3-.19c.17-.11.33-.21.48-.34.1-.08.2-.11.28-.16.28-.26.56-.49.89-.67.13-.07.23-.15.34-.25.14-.1.26-.2.41-.27.06-.02.11-.05.14-.08.24-.23.54-.34.8-.54.02,0,.03-.03.07-.05l-.22.02-.15.1c-.29.13-.59.24-.87.4-.09.05-.22.06-.31.11-.12.04-.23.13-.36.15-.12.02-.23.08-.34.13l-.37.15c-.34.13-.67.28-1,.45-.07.04-.15.06-.23.09-.13.05-.25.1-.36.19-.15.09-.32.16-.48.23-.28.12-.55.24-.82.36-.12.05-.24.07-.37.03-.05-.02-.07-.07-.08-.12-.04-.29-.17-.54-.32-.79-.04-.06-.08-.13-.08-.21,0-.05.03-.1.1-.17.02,0,.07-.05.12-.05.17,0,.32-.08.47-.15l1.57-.66c.05-.02.11-.07.18-.1.11-.04.2-.16.35-.15.08,0,.11-.08.16-.11.14-.06.27-.12.4-.17.12-.04.24-.1.37-.12.06,0,.12-.04.19-.07.32-.13.63-.26.95-.39.11-.05.2-.11.27-.18.27-.05.52-.13.75-.3.18-.14.51-.21.74-.31.19-.09.39-.19.58-.29.08-.05.15-.09.23-.12.09-.03.17,0,.23-.09.06-.05.15-.02.21-.09.04-.04.1-.07.15-.07.17-.02.31-.11.47-.16.14-.06.27-.11.4-.21.06-.05.14-.07.21-.1.05-.02.11,0,.18.04.1.15.18.33.21.53.05.29.19.54.3.81.12.07.1.2.13.3,0,.05-.04.08-.09.1-.21.09-.38.22-.55.36-.03.03-.07.05-.11.07-.08.02-.14.09-.22.14-.24.15-.46.33-.71.47-.38.21-.74.49-1.1.74-.23.17-.47.34-.7.5-.39.27-.79.5-1.14.8-.06.05-.11.08-.17.12-.12.05-.23.13-.32.24.21-.02.4-.08.6-.12.19-.04.38-.04.55-.14.38,0,.72-.23,1.1-.22.04,0,.07-.02.1-.03.33-.13.68-.17,1.02-.25l.36-.09c.12-.02.23-.02.34-.07l.34-.1c.18-.05.37-.1.56-.13.12-.02.23-.06.34-.09.2-.08.47-.13.73-.14.11.13.11.3.2.43Z"/>
        </g>
        <g>
          <path class="cls-1" d="M21.37,69.11c-.25-.01-.49.06-.74.1-.03,0-.08,0-.13.01-.2,0-.4.1-.61.13-.18.03-.37.09-.55.11-.19.01-.37.07-.55.1-.16.04-.32.07-.49.09-.24.02-.47.06-.7.14-.1.03-.19.06-.3.04-.13-.01-.24.06-.37.08-.21.04-.43.09-.64.1-.15,0-.29-.02-.43-.04-.08,0-.19-.04-.24-.14-.01,0,0-.02-.03-.02-.09.02-.14-.04-.21-.11-.33-.27-.54-.62-.63-1.05-.08-.36-.08-.71-.1-1.06,0-.05.06-.07.05-.12l-.03-.17c.07-.16.07-.31.16-.46.16-.29.35-.48.66-.65.14-.08.32-.13.48-.14.09-.02.19-.02.27-.05.15-.04.3-.07.45-.1l.92-.2c.33-.08.68-.14,1.02-.19.25-.05.51-.11.76-.19.11-.03.23-.06.35-.05.13,0,.27-.02.4-.04s.27-.05.4-.09c.06,0,.11,0,.15.04.11-.09.24-.1.37-.14.18-.05.38-.07.57-.11l.9-.13c.07-.01.15,0,.21,0,.15-.04.31-.03.44-.13.1.09.22.07.33.09.44.09.75.33.99.69.1.15.21.3.35.45.01.12.06.25.13.38.05.1.03.21.02.32,0,.16.02.31.04.45.01.12-.03.2-.07.29-.05.14-.07.28-.13.41-.12.26-.27.48-.54.64-.19.12-.4.16-.62.22-.12.05-.26.06-.39.08-.34.05-.7.06-1.02.18-.04.02-.11,0-.15.02-.16.02-.32.07-.47.11-.07.02-.14.07-.22,0-.02.03-.02.06-.07.07ZM16.44,68.51c.22-.03.44-.03.67-.1.24-.06.49-.08.73-.14.03,0,.06,0,.08,0,.07,0,.16,0,.23-.02.32-.07.64-.14.96-.2.35-.05.7-.12,1.05-.18.4-.09.81-.14,1.22-.23.3-.07.6-.12.9-.17.26-.05.5-.11.75-.13.19-.02.39-.04.55-.15.02-.02.05,0,.08,0-.03-.09.05-.13.07-.19-.04-.16-.03-.31-.04-.47-.05-.06-.11-.13-.16-.22-.07-.13-.19-.18-.34-.13-.03.02-.06.01-.08.02-.16.03-.34.04-.48.11-.05,0-.08,0-.13,0-.09,0-.2.01-.28.05-.12.07-.35.05-.48.08l-1.47.27c-.24.04-.53.04-.76.13s-.46.09-.7.12c-.22.04-.46.04-.67.16-.05,0-.04-.09-.09-.04,0,.01,0,.03,0,.05-.3.07-.59.12-.89.17-.12,0-.26.02-.37.06-.16.05-.32.08-.49.1-.08.01-.16.03-.2.05-.12.18-.19.32-.19.5,0,.13,0,.25.13.36.07.05.15.08.21.14.07,0,.14,0,.2-.01Z"/>
          <path class="cls-1" d="M25.77,70.35c0,.15,0,.29.11.41,0,.24.14.44.19.66.03.13.11.22.14.35.03.15.12.29.12.45.01.11.09.22.13.32.05.13.08.27.04.42l-.5.13c-.15.05-.29.09-.44.17-.12.06-.17.08-.34.05-.09-.47-.3-1.01-.45-1.47-.16.01-.29.1-.44.11-.05,0-.1,0-.14.02-.23.1-.47.12-.69.2l-.33.13c-.14.06-.29.1-.44.14-.22.07-.44.16-.67.23-.03.07-.04.13-.02.19.13.28.06.36.17.5.06.08.07.17.11.25.02.07,0,.16-.06.23-.15-.04-.25.11-.39.14-.14.03-.28.05-.43.1-.16.11-.32.17-.5.13-.12-.33-.15-.68-.3-1.01-.23.01-.44.11-.66.14-.24.03-.44.17-.68.17-.01,0-.03.02-.05.03-.24.07-.47.13-.69.25-.05.03-.14.03-.21.05-.21.04-.41.15-.63.16-.04,0-.06.04-.1.04-.25.07-.47.18-.71.26-.13.03-.26.05-.38.09-.06.02-.09-.07-.15.01-.09-.42-.18-.82-.33-1.2.03-.15.13-.22.27-.25.13-.03.25-.1.4-.11.09,0,.18-.06.28-.1.08-.05.19-.11.29-.05.01-.04.03-.07.07-.09.34-.1.67-.24,1.03-.32.02,0,.06,0,.09-.04.03-.03.06-.04.1-.04.22,0,.43-.1.63-.16.22-.06.43-.12.64-.2.25-.11.53-.17.79-.25.12-.04.25-.08.36-.11.3-.07.56-.25.87-.27.1,0,.19-.04.26-.11.03-.02.08-.04.11-.04.24-.04.46-.12.68-.19.06-.02.13-.02.19-.04.28-.09.56-.2.83-.32.26-.11.53-.17.79-.27.16-.07.34-.11.5-.15.09-.02.17-.09.26-.11.03,0,.06-.02.12.01l.16.31Z"/>
          <path class="cls-1" d="M29.99,80.26c-.06.13-.11.27-.1.42-.07.16-.37.44-.41.47-.14.07-.21.22-.38.23-.09.14-.24.19-.37.28l-.37.23c-.13.08-.27.15-.4.23-.19.13-.37.24-.53.39-.13.12-.31.2-.47.29-.1.04-.19.1-.28.15-.26.2-.59.39-.9.54-.2.1-.41.22-.61.34-.11.07-.22.13-.34.22-.14.08-.3.17-.42.31-.05.06-.13.08-.2.12-.23.14-.46.28-.7.44-.25.16-.52.28-.84.4-.07,0-.27.06-.37.03-.18-.04-.36-.07-.54-.14-.19-.08-.3-.25-.47-.35-.24-.27-.47-.55-.62-.89-.19-.42-.23-.9-.17-1.37.06-.26.24-.44.39-.65l1.71-1.12s.09-.07.15-.08c.24-.06.44-.21.65-.34.11-.07.23-.1.33-.19.11-.09.25-.16.37-.24.11-.07.23-.12.34-.21l.33-.2c.68-.41,1.34-.81,2.01-1.24.11-.07.22-.14.32-.22.11-.11.23-.18.4-.21.03-.03.18-.08.23-.12.16.01.21,0,.37,0,.2.06.41.1.67.16l.47.3c.06.07.1.15.17.21.31.31.48.62.57,1.09l.04.25c-.04.16-.03.31-.01.48ZM22.91,83.58c.32-.18.61-.41.95-.52.04,0,.06-.04.08-.05.26-.17.53-.28.75-.5.02-.01.06-.02.09-.04.23-.08.43-.23.63-.35.08-.13.22-.19.33-.27.11-.08.24-.15.34-.26.11-.11.25-.2.39-.24.17-.05.33-.13.47-.25.11-.08.25-.08.37-.19.1-.1.26-.17.38-.26.11-.07.23-.11.31-.23.03-.04.09-.07.13-.09.18-.07.31-.19.47-.29.02-.01.03-.04.05-.05.03-.07.04-.15.02-.24-.08-.17-.17-.34-.3-.48-.1-.05-.19-.09-.26-.09-.14,0-.21.07-.3.1-.18.21-.44.3-.66.44-.06.05-.13.08-.21.1-.06.01-.12.05-.17.08-.57.34-1.15.68-1.71,1.03-.12.07-.24.16-.36.23-.12.07-.23.15-.34.21-.13.06-.22.18-.36.22-.04,0-.08.05-.1.08-.07.11-.18.16-.28.22l-1.53.93c-.09.05-.21.09-.25.16-.02.25.06.45.15.66.09.03.11.14.19.22l.17.03c.21-.11.39-.21.56-.31Z"/>
          <path class="cls-1" d="M28.78,84.26c.2-.17.4-.32.57-.49.33-.32.7-.62,1.06-.9.18-.15.38-.29.56-.44.2-.15.37-.33.54-.52.05,0,.09.03.11.04.15.21.27.42.45.59.06.07.12.13.17.21.04.07.13.12.14.22,0,.03.04.07.07.1l.55.66c.19.21.28.46.32.75.01.14.06.29,0,.43-.06.16-.08.33-.19.47-.12.17-.22.36-.36.53l-.12.13s-.08.07-.1.12c-.06.14-.21.21-.33.29-.14.09-.26.2-.4.3-.15.13-.27.3-.46.37-.1.04-.19.14-.28.2-.21.16-.43.3-.67.33-.15.02-.32.05-.47-.04-.1-.05-.24-.05-.33-.15-.03.11,0,.18.02.26.07.28.09.55-.01.81-.13.32-.39.51-.66.7-.11.07-.18.21-.31.24t-.03,0s-.14.15-.45.4c-.03.1-.7.58-.88.71-.21.13-.52.19-.77.15l-.55-.08c-.13-.03-.21-.14-.35-.14-.11-.13-.21-.24-.32-.29-.27-.33-.5-.63-.75-.93-.23-.3-.49-.58-.77-.85.04-.14.12-.24.25-.3.06-.02.11-.06.15-.1.34-.29.72-.56,1.07-.84.25-.2.5-.38.74-.59.13-.11.26-.2.38-.32.27-.26.55-.5.83-.76.14-.11.29-.23.44-.32.11-.07.2-.18.31-.28.19-.16.38-.32.56-.49.05-.04.09-.03.13-.06.01-.06.07-.1.11-.14ZM26.07,88.92c.21.2.5.36.74.22.19-.12.36-.29.53-.43.04-.03.09-.12.17-.18.22-.17.28-.08.27-.19,0-.11.24-.19.39-.33.22-.18.36-.4.37-.62-.11-.26-.34-.5-.54-.62-.03.07-.39.34-.84.71-.4.33-.47.49-1.36,1.14.08.12.17.22.26.31ZM30.32,84.93c-.07.06-.26.2-.3.21-.07-.01-.17.17-.29.26-.15.13-.32.25-.46.4.17.09.25.25.38.39.09.09.2.13.31.13h.28c.12-.11.22-.25.37-.33.17-.08.22-.27.37-.33.21-.22.45-.39.65-.57.05-.09.08-.18.13-.25,0-.34-.15-.57-.42-.76-.32.32-.68.57-1.01.85Z"/>
          <path class="cls-1" d="M34.63,91.92l-.08.13-.16.18c-.07.08-.14.16-.23.24-.27.28-.49.62-.78.91-.12.13-.23.28-.37.42-.18.18-.32.39-.52.56-.06.05-.17.16-.2.26,0,.04-.04.08-.09.1-.07.02-.09.08-.13.14-.09.11-.19.21-.31.29l-.18.14c-.1.07-.2.14-.33.14-.11,0-.21.05-.33.07-.32.02-.58-.08-.81-.28-.05-.05-.13-.07-.18-.13-.1-.1-.23-.17-.3-.3-.04-.05-.1-.1-.16-.14-.09-.06-.15-.13-.2-.22-.16-.21-.4-.55-.32-.65l-.07-.31c-.02-.12-.03-.25.02-.36.13-.31.25-.54.53-.91.02,0,.03-.02.05-.04.21-.24.49-.51.66-.79h.08s.28.27.28.27c.04.04.11.07.15.12.14.18.34.29.52.43.04.03.05.05.06.11-.17.13-.28.27-.39.44-.17.25-.22.17-.35.4,0,.02-.23.3-.09.46,0,.02.04.05.04.06.03.04.07.08.11.11.13.16.49.16.63-.02.16-.2.38-.43.57-.63.09-.11.2-.22.31-.31.08-.05.14-.14.2-.23.14-.17.3-.33.46-.51.1-.12.19-.25.32-.36.16-.16.33-.33.46-.5.04-.04.08-.09.13-.12.13-.09.23-.22.32-.36.05-.08.11-.16.2-.2.05-.14.17-.24.27-.36.21-.27.46-.52.71-.76,0-.06.03-.14.08-.17.12-.06.2-.17.28-.26.16-.18.32-.34.46-.54.16-.22.39-.37.53-.61.14-.07.18-.28.39-.29.09.05.17.12.24.23.06.09.16.14.24.21.1.07.17.15.27.21.03.02.05.05.01.09.09.02.15.08.19.11,0,.05-.08.06-.09.14-.07.02-.1.16-.23.16,0,.03.02.05,0,.07-.44.51-.89,1.01-1.34,1.51-.23.24-.45.49-.68.74-.11.12-.22.25-.34.36-.09.1-.17.24-.31.29-.03.12-.07.24-.2.26Z"/>
          <path class="cls-1" d="M39.36,89.6c.14.09.25.22.39.29.3.14.54.38.85.51.15.07.28.19.42.31.04.04.1.06.17.09.05.03.04.01.08.07.18.03.25.2.35.22.03.06.01.11,0,.17-.09.05-.16.15-.2.25-.05.16-.2.28-.23.45-.13.07-.13.24-.25.31-.14-.02-.24-.11-.36-.17-.15-.07-.29-.14-.41-.25-.17-.15-.35-.26-.53-.38-.02-.01-.04-.04-.09-.03l-.15.22c-.08.09-.12.2-.21.3-.01.02-.03.04-.04.07-.04.1-.1.21-.22.25-.04.12-.08.25-.19.34-.01.11-.06.2-.12.29l-.6.89c.18.12.24.15.4.25.08.05.21.2.38.27.04.07.15.1.19.16-.08.08-.16.24-.22.31-.11.14-.11.29-.26.39-.03.02-.06.1-.09.17t-.04.04s0,0,0,.04c-.07.06-.13.14-.24.18-.2-.19-.46-.24-.67-.41-.09-.08-.19-.13-.28-.19-.21.23-.36.5-.49.75-.06.06-.11.03-.15.04-.03.07-.05.14-.09.2-.04.08-.1.17-.17.25-.07.05-.14.15-.15.25-.02.1-.08.16-.13.24-.16.19-.25.43-.4.66.2.16.42.3.64.44.2.15.4.24.64.4,0,0,.06.07.04.14-.09.2-.25.37-.38.57-.08.13-.16.25-.21.4-.04.14-.05.14-.18.2-.36-.19-.66-.46-.99-.68-.42-.27-.83-.57-1.27-.8-.13-.08-.28-.15-.32-.33.04-.19.19-.33.3-.48.1-.15.18-.31.3-.44.18-.22.3-.48.48-.7.14-.19.25-.41.4-.57.21-.25.39-.55.58-.82.17-.24.32-.49.49-.73.09-.14.21-.27.29-.42.16-.26.35-.5.53-.77.18-.25.35-.52.52-.77.1-.16.21-.31.34-.46.13-.13.2-.3.29-.47.09-.15.22-.28.31-.43.06-.12.14-.21.18-.33.04-.1.13-.17.18-.26.09-.13.11-.29.25-.41.03-.02.03-.08.04-.13.11-.08.21-.04.32.03Z"/>
          <path class="cls-1" d="M42.04,99.79c.4.21.74.47,1.15.58.05.08.12.06.13.22-.17.21-.27.43-.37.65-.04.08-.08.16-.08.25,0,.12-.08.2-.15.28l-.12.2c-.27.22-.54.4-.89.47-.09-.03-.21-.05-.34-.02-.12.02-.25,0-.35-.06-.25-.12-.53-.18-.76-.33-.18-.1-.32-.22-.47-.35-.05-.05-.1-.1-.16-.13-.25-.14-.35-.37-.42-.62l-.08-.19c-.03-.15-.02-.31-.01-.45l-.02-.15.55-1.11c.08-.16.14-.42.22-.58.13-.28.29-.45.42-.73.09-.15.17-.32.24-.49.05-.15.12-.28.19-.43.08-.16.11-.3.19-.46.14-.26.33-.55.46-.8.06-.1.1-.21.16-.32.03-.06.09-.13.03-.18.15-.19.28-.38.38-.58.03-.08.07-.16.1-.24.17-.31.28-.67.45-.99.15-.25.37-.42.61-.6.11.02.22-.01.32-.05.28-.09.56-.12.86-.08.08.01.18,0,.24.01.18.04.26.22.43.19.07.12.18.18.3.22.24.1.43.27.56.49.12.23.26.46.31.71.04.26.01.51-.06.76-.06.2-.17.37-.23.56-.05.16-.14.31-.21.46-.03.06-.15.07-.12.18l-.11.04c-.38-.21-.79-.34-1.16-.6,0,.01,0,0-.01-.03l-.03-.05c.14-.37.33-.69.52-1.05-.03-.07-.08-.14-.1-.22-.13-.12-.29-.17-.46-.25-.01,0-.03.01-.06.01-.23-.05-.34.1-.42.28-.06.15-.14.3-.22.45-.15.24-.24.51-.38.76-.04.08-.11.14-.15.23-.01.03-.04,0-.06.02.03.16-.02.29-.16.37,0,.04.04.07.01.11-.13.15-.13.36-.27.5-.08.08-.07.22-.13.32-.15.28-.27.57-.43.84-.09.15-.17.31-.25.47-.08.17-.14.34-.22.51-.12.19-.24.4-.33.62-.12.32-.29.62-.42.95-.02.04-.03.08,0,.13.03.05,0,.07-.04.1.02.05.02.12.07.15s.07.09.12.14l.29.14s.09,0,.13-.02c.12-.03.25-.08.29-.21.07-.19.22-.34.3-.52.04-.07.07-.15.06-.23,0-.08.08-.13.07-.2l.13-.02Z"/>
          <path class="cls-1" d="M47.48,95.19c.08-.15.13-.32.15-.5.01-.08.1-.16.08-.24-.03-.1,0-.15.04-.21l.54.17c.07.02.13-.02.22.02.12.06.25.08.36.16.04.01.07-.02.09-.02l.09.09c.08-.05.15,0,.22.04.33.12.7.18,1.04.29.24.08.46.15.7.22.15.05.29.09.44.13.11.1.07.22.02.28-.1.14-.11.3-.17.45-.08.2-.13.39-.18.6-.03.05-.1,0-.15,0-.13-.04-.22-.05-.33-.11-.12-.08-.26-.07-.38-.09-.15,0-.25-.13-.41-.07-.02.17-.06.31-.13.45-.08.16-.15.31-.18.49-.04.15-.09.29-.13.43-.01.04-.04.06-.07.08l.06.06c-.05.04-.08.1-.07.19,0,.09-.04.19-.07.28-.07.16-.18.33-.21.5,0,.02-.05.03-.07.05,0,.01.02.05.02.06-.15.38-.21.79-.36,1.21-.07.1-.11.27-.17.44-.03.1-.05.19-.11.29-.05.07-.06.18-.08.26-.03.13-.09.23-.12.34-.07.21-.13.44-.17.68-.08.02-.02.14-.1.18.02.14-.08.25-.1.39-.03.12-.09.23-.1.35,0,.05-.02.07-.05.11-.04.05-.07.11-.03.17-.1.19-.15.38-.2.57-.05.2-.15.38-.14.58-.11.1-.2,0-.31-.01-.12,0-.24-.02-.35-.1-.04-.04-.09-.02-.14-.02l-.05-.07c-.21-.02-.4-.06-.56-.23-.06-.21.15-.4.1-.6.09-.2.15-.4.21-.6.06-.19.16-.38.23-.58.06-.19.08-.41.23-.58,0-.01,0-.06.01-.11.14-.31.25-.65.37-.97.09-.24.14-.5.24-.73.04-.08.06-.18.08-.28,0-.13.08-.25.11-.39.07-.25.16-.49.24-.74.04-.11.08-.22.13-.33.06-.15.11-.33.16-.48.08-.21.14-.43.22-.64.04-.09.03-.18.1-.27.05-.07.04-.17.08-.25.04-.13.08-.26.15-.38.04-.1.06-.21.09-.32-.37-.04-.7-.21-1.08-.25-.1-.12-.13-.24-.03-.41Z"/>
          <path class="cls-1" d="M54.9,105.44c-.14.19-.3.39-.53.49-.12.04-.21.08-.31.15-.08.03-.16.03-.25.01l-.11.08s-.08-.01-.12,0c-.12.02-.21,0-.34.01-.2-.05-.35-.04-.56-.06-.14-.02-.35-.15-.48-.19-.06-.02-.1-.07-.15-.1-.18-.15-.4-.24-.54-.44-.08-.14-.16-.28-.22-.44-.02-.05.02-.09,0-.16-.02-.03-.06-.04-.08-.1.14-.72.17-1.39.37-2.15.07-.12.22-.07.35-.07.08,0,.16.04.24.05.2.05.34.1.55.1.1,0,.13.02.2.08-.04.09-.03.15-.03.26,0,.06-.01.13-.06.19-.04.09,0,.11-.01.2-.02.15-.04.32-.09.46-.03.09-.04.17-.02.26,0,.04.01.08,0,.11-.06.2.01.41.2.52.04.03.07.07.13.1l.26.04c.15.04.29.01.38-.12,0-.02-.01-.06,0-.08.12-.11.11-.26.13-.4.04-.2.13-.6.12-.81,0-.06,0-.12-.02-.16-.15-.45-.25-.89-.44-1.32-.12-.29-.17-.59-.28-.89-.12-.31-.16-.65-.35-.94-.05-.07-.04-.16-.07-.24-.04-.14-.11-.27-.12-.42-.01-.21-.11-.39-.14-.59,0-.09-.15-.49-.14-.7,0-.22.04-.38.08-.58,0-.12.07-.22.07-.32,0-.09,0-.17.05-.23.08-.11.12-.23.17-.35.07-.18.2-.34.37-.45.12-.09.23-.21.38-.27.15-.06.31-.15.5-.12.1.02.23,0,.35-.02.18-.03.37,0,.54.08.06.02.12,0,.17.03.2.07.42.13.62.24.19.09.33.24.46.4.08.1.17.2.22.31.05.16.16.34.15.53,0,.07.01.12-.04.17,0,.15.02.29-.05.37-.13.48-.22.93-.25,1.39-.05.03-.08.06-.12.03,0-.01-.03-.02-.04-.02-.27.04-.51-.11-.75-.13-.14-.01-.27-.06-.4-.03-.1-.13-.12-.25-.05-.39.03-.04,0-.11.02-.16.02-.25.11-.48.14-.73,0-.12.04-.23.05-.35.01-.08-.07-.13-.03-.22-.16-.03-.27-.14-.46-.17-.09.04-.24-.02-.37.02-.01.07-.1.07-.13.14-.06.16-.13.45-.13.62,0,.13-.02.26-.04.39-.01.07-.01.13.01.21.03.12.03.16.03.28.02.21.15.27.19.47.02.03.04.05.04.08.03.22.11.44.19.64.05.14.11.26.17.39.07.17.08.34.15.51.13.3.25.5.35.82.08.23.16.33.22.55.09.24.25.79.23,1.07,0,.09,0,.19-.01.29-.04.15-.05.4-.08.55-.03.17-.11.34-.13.52-.02.18-.1.34-.13.52-.06.13-.07.12-.1.18Z"/>
          <path class="cls-1" d="M65.76,100.25c-.04.25,0,.5.02.74,0,.04,0,.08,0,.13-.02.2.05.41.05.62.01.19.05.38.05.56,0,.19.03.38.04.55.02.16.03.33.03.49,0,.24,0,.47.06.71.02.1.04.2,0,.31-.03.13.03.25.04.38.01.21.04.44.02.65-.03.14-.05.29-.09.42-.02.08-.06.18-.16.22-.01.01-.02,0-.02.03,0,.09-.06.13-.13.2-.31.29-.68.46-1.11.5-.36.04-.71,0-1.07-.02-.05,0-.06-.07-.11-.06h-.18c-.15-.07-.3-.1-.44-.19-.27-.2-.44-.41-.57-.73-.06-.15-.09-.34-.08-.49,0-.09,0-.19-.02-.27-.02-.15-.03-.31-.04-.46l-.09-.94c-.05-.34-.06-.7-.07-1.04-.02-.26-.05-.52-.1-.78-.02-.12-.03-.23-.01-.35.03-.13.02-.27,0-.4s-.02-.27-.04-.41c0-.06.02-.11.06-.15-.08-.12-.08-.26-.1-.38-.02-.19-.03-.39-.04-.58l-.03-.91c0-.07.03-.14.02-.21-.02-.15,0-.31-.08-.46.1-.09.09-.21.13-.32.14-.42.42-.7.8-.91.16-.08.32-.18.49-.29.12,0,.26-.03.4-.08.1-.04.21,0,.32.01.16.01.31.01.45.02.12,0,.19.06.28.1.13.06.27.1.39.17.25.15.45.33.57.61.1.21.11.42.15.64.03.13.03.27.04.4.01.34-.02.7.06,1.04.01.05,0,.11,0,.15,0,.17.03.33.06.48.02.07.06.15-.03.21.02.02.06.03.06.08ZM64.59,105.08c0-.23.02-.44-.02-.67-.03-.25-.02-.5-.05-.74,0-.04,0-.06.02-.08,0-.07.01-.16,0-.23-.03-.33-.07-.66-.09-.98-.01-.35-.04-.71-.06-1.06-.04-.41-.04-.83-.08-1.24-.03-.3-.05-.61-.06-.92-.02-.26-.05-.51-.04-.75,0-.19,0-.39-.09-.56-.01-.02,0-.05.02-.08-.09.02-.12-.06-.18-.09-.16.02-.31,0-.47-.02-.07.04-.15.09-.24.13-.14.06-.2.17-.17.32.01.03,0,.06,0,.08,0,.16,0,.34.06.49,0,.05-.02.08-.02.13,0,.09,0,.2.02.28.06.13.01.35.02.48l.1,1.5c.02.25-.02.53.04.77.06.23.03.47.04.71.01.22-.02.46.08.68,0,.05-.09.03-.05.09.01,0,.04,0,.05,0,.03.31.05.6.06.91,0,.12,0,.26.01.38.03.16.05.33.04.49,0,.08.01.17.03.2.16.14.3.23.48.25.13.02.25.03.37-.08.05-.06.1-.14.17-.19.02-.07.01-.14,0-.2Z"/>
          <path class="cls-1" d="M67.51,96.02c.15.02.29.02.42-.06.24.02.45-.09.67-.12.13-.01.24-.08.37-.1.16,0,.3-.08.46-.07.11,0,.23-.06.33-.09.14-.04.28-.05.42,0l.07.52c.03.15.06.3.12.46.05.12.06.18.01.35-.47.04-1.04.18-1.51.28,0,.16.06.3.06.45,0,.05,0,.1,0,.14.07.24.06.48.12.71l.09.34c.04.15.06.3.09.45.05.23.11.46.15.69.07.03.12.06.19.05.29-.1.36-.01.52-.11.08-.05.17-.05.26-.08.07-.01.16.01.22.09-.05.14.08.26.09.4s.02.29.05.44c.08.18.13.33.07.52-.34.08-.7.07-1.04.18-.01.23.06.45.07.67,0,.24.12.46.1.69,0,.01.02.03.02.06.04.24.08.48.17.71.02.05.02.14.03.21.02.21.1.43.09.65,0,.04.04.06.03.1.04.26.13.49.18.74.01.13.02.26.04.39.01.06-.08.08,0,.14-.42.04-.84.09-1.22.2-.14-.04-.2-.15-.22-.29-.01-.13-.07-.26-.06-.41,0-.09-.04-.18-.07-.29-.04-.09-.09-.2-.01-.3-.04-.02-.07-.03-.08-.08-.06-.35-.17-.69-.19-1.06,0-.02,0-.06-.03-.09-.03-.03-.04-.06-.03-.1.03-.22-.05-.43-.08-.65-.03-.22-.07-.44-.12-.66-.08-.26-.11-.54-.16-.81-.03-.13-.05-.25-.07-.37-.04-.31-.18-.59-.17-.89,0-.1-.02-.19-.08-.27-.02-.03-.03-.08-.02-.12-.01-.24-.06-.47-.11-.7-.01-.06,0-.13-.01-.19-.06-.29-.13-.58-.23-.86-.08-.27-.11-.54-.18-.82-.05-.17-.07-.35-.09-.51,0-.09-.07-.18-.08-.27,0-.03-.01-.06.03-.11l.32-.13Z"/>
          <path class="cls-1" d="M80.76,101.07s.04.03.05.06c.13.29.24.59.37.88.02.04.02.08.04.12-.09.12-.22.11-.33.17-.11.07-.24.1-.35.19-.09.06-.2.14-.3.16-.12.01-.23.07-.33.12l-.31.17-.73.32c-.09,0-.16,0-.22-.07-.18-.29-.22-.68-.43-.99,0-.08.05-.12.11-.15.12-.06.28-.15.39-.2.01-.06.03-.11.01-.15-.12-.15-.14-.36-.2-.54-.05-.11-.06-.22-.15-.32-.05-.06-.04-.13-.07-.22-.01-.06-.07-.11-.1-.16-.06-.1-.07-.23-.14-.32-.06-.09-.1-.2-.14-.3-.05-.11-.11-.22-.16-.33-.06-.21-.18-.38-.19-.61-.13-.11-.21-.27-.19-.44-.16-.15-.15-.36-.24-.53-.11-.18-.2-.36-.23-.57-.15-.14-.2-.34-.29-.52l-.24-.54c-.08-.19-.16-.39-.24-.59-.08-.17-.17-.35-.25-.52-.06-.04-.1,0-.16.02l-.35.15c-.08-.08-.14-.14-.18-.24-.05-.08-.16-.14-.2-.22-.1-.24-.34-.48-.44-.72.04-.15.17-.2.3-.23.12-.04.44-.19.57-.23.12-.04.23-.1.34-.16.06-.04.12-.09.18-.09.17,0,.3-.11.45-.17.22-.09.47-.26.66-.37.09,0,.08.15.17.13.1.37.34.74.44,1.1-.03.23-.33.26-.44.44.05.18.15.37.23.56.06.16.12.31.2.46.08.15.06.31.14.44.07.14.14.27.23.4.06.12.07.24.13.37.07.1.11.21.16.31.07.12.06.28.15.4.05.29.22.52.32.8.11.11.13.27.21.4.04.07.06.16.08.24.04.16.1.32.21.45.05.04.06.12.09.17.2.44.4.89.6,1.34.04.09.06.19.14.27.16-.02.29-.13.43-.16.08,0,.15.03.2.05Z"/>
          <path class="cls-1" d="M78.66,92.23c.12-.05.26-.08.34-.18.02-.03.06-.04.09-.06l.3-.21c.14-.13.22-.15.4-.21v-.06c.09-.05.29-.02.37.06.05.04.09.08.12.13.09.22.28.35.43.52.07.1.14.18.2.28.16.23.43.39.59.62.19.27.48.47.7.72.11.14.2.29.33.42.3.31.56.65.89.94.15.13.26.3.4.43.04.03.09.07.14.11-.05-.15-.5-.87-.59-.95-.01-.16-.15-.25-.2-.39-.05-.12-.15-.23-.18-.36-.07-.01-.1-.07-.14-.13-.22-.38-.45-.75-.68-1.12-.23-.35-.41-.72-.67-1.05-.13-.17-.22-.38-.35-.56-.07-.09-.14-.19-.29-.22.06-.04.06-.09.03-.16.38-.23.77-.47,1.2-.69.11.04.2.17.26.31.02.08.07.16.12.24.1.19.2.37.31.53.11.18.21.36.34.53.05.09.1.19.15.28.1.2.22.39.35.57.16.24.34.47.46.75.02.06.08.08.11.13.16.26.32.53.49.78.13.22.27.43.43.64.09.11.19.23.23.37.04.14.15.24.2.38l.21.39c.09.18.17.37.29.52.23.3.39.65.62.94.03.05.02.08.04.11.29.31.49.69.74,1.03.01.16-.16.28-.29.32-.06.02-.11.02-.15.05-.05.02-.08.03-.11.07-.13.08-.27.15-.41.19-.05.01-.09.03-.11.07-.02.03-.03.06-.06.08-.03.04-.09.04-.13.05-.06,0-.1.09-.14.08-.01,0-.18-.09-.17-.08,0-.11-.05-.19-.11-.25-.21-.16-.33-.4-.5-.58-.11-.11-.24-.21-.34-.33-.19-.19-.39-.36-.56-.56-.2-.24-.44-.42-.65-.66-.11-.13-.22-.27-.32-.41-.06-.1-.15-.18-.25-.27-.19-.15-.36-.34-.52-.51-.18-.2-.41-.36-.55-.6,0,0-.03-.02-.07-.04.04.14.11.22.17.3.09.11.15.23.21.34.03.07.07.12.13.17.09.07.16.15.13.28.07-.03.09.04.11.06.15.24.28.48.42.73.1.16.23.3.33.47.06.1.1.2.17.3.16.22.3.45.44.67.09.15.18.29.25.44.13.24.27.47.46.68.02.03.05.05.07.08.06.09.09.19.2.22.01.12-.03.2-.12.25l-.34.21c-.18.11-.34.26-.53.35-.11.05-.15.07-.24-.02-.12-.13-.23-.26-.27-.44l-.6-.98s-.04-.1-.09-.12c-.08-.04-.07-.11-.08-.16-.03-.03-.07-.05-.09-.08-.06-.09-.1-.19-.14-.28-.05-.08-.12-.15-.17-.23-.15-.24-.24-.5-.4-.72-.21-.26-.36-.54-.56-.81-.17-.2-.25-.47-.39-.69-.08-.13-.13-.28-.24-.39-.04-.04-.03-.09-.06-.14-.15-.27-.36-.5-.5-.77-.03-.05-.07-.08-.1-.14-.18-.22-.32-.47-.46-.71-.06-.1-.11-.21-.21-.29-.03-.02-.05-.05-.06-.09-.1-.26-.27-.47-.4-.71-.06-.12-.19-.2-.22-.32-.03-.14-.14-.23-.18-.4.02-.01.04-.05.05-.07Z"/>
          <path class="cls-1" d="M83.91,90.1c-.08-.15-.2-.28-.34-.39-.06-.06-.08-.17-.16-.19-.1-.03-.12-.08-.15-.15l.43-.36c.05-.04.05-.12.13-.17.11-.07.2-.17.32-.22.04-.03.02-.07.03-.09l.13-.03c0-.09.08-.13.15-.17.28-.22.52-.5.79-.73.19-.16.37-.31.55-.48.12-.1.24-.2.35-.3.14-.04.22.06.25.13.07.16.2.25.29.39.13.17.26.32.41.47.03.05-.06.08-.08.13-.11.09-.16.16-.26.22-.13.06-.2.18-.28.28-.09.12-.25.15-.28.31.13.1.23.22.31.36.1.15.18.29.31.41.11.11.2.24.3.34.03.04.03.07.02.1l.08-.02c.01.07.04.12.12.16s.14.13.2.2c.1.14.18.33.31.45.02.02,0,.06,0,.08.02,0,.05,0,.06.01.25.33.56.6.84.95.05.11.17.24.29.38.07.08.14.15.19.24.04.08.12.14.17.21.09.09.15.2.23.29.14.17.3.35.48.5-.02.08.11.09.1.18.13.06.17.2.28.29.08.08.15.2.24.27.04.03.05.05.07.1.02.06.06.12.12.11.11.19.25.33.38.47.14.15.24.32.42.42.03.14-.11.17-.17.25-.07.1-.14.2-.27.24-.05.01-.07.07-.09.11h-.08c-.12.17-.26.32-.49.36-.2-.06-.25-.34-.46-.4-.12-.18-.25-.34-.4-.5-.13-.15-.24-.34-.38-.5-.13-.15-.3-.29-.37-.5,0,0-.06-.03-.09-.07-.19-.29-.42-.56-.63-.83-.16-.21-.35-.38-.49-.59-.05-.08-.12-.14-.2-.22-.11-.08-.17-.2-.27-.3-.18-.19-.33-.4-.5-.6-.08-.09-.14-.19-.21-.29-.1-.13-.22-.26-.33-.39-.13-.18-.29-.34-.42-.52-.05-.08-.13-.12-.17-.22-.03-.08-.12-.13-.17-.2-.09-.11-.17-.21-.25-.33-.06-.09-.15-.16-.22-.24-.23.3-.55.48-.79.78-.15.02-.28-.02-.36-.19Z"/>
          <path class="cls-1" d="M87.43,85.62c.11-.12.26-.21.34-.34.19-.28.46-.48.64-.76.09-.14.23-.25.37-.37.05-.03.07-.09.11-.15.04-.04.02-.03.08-.07.06-.17.23-.22.27-.31.07-.02.11,0,.17.03.04.1.12.18.22.23.15.08.24.24.41.3.05.14.22.17.27.3-.04.14-.14.22-.22.33-.09.14-.18.27-.3.36-.17.15-.31.31-.46.46-.02.02-.05.04-.05.09l.2.18c.08.09.18.15.26.26.02.02.03.03.07.05.09.05.19.13.21.26.11.05.23.11.31.24.1.03.19.09.27.17l.79.73c.14-.16.18-.22.31-.36.06-.07.23-.18.32-.33.07-.03.12-.13.19-.17.06.09.21.19.27.26.12.13.27.15.35.32.02.03.09.07.16.11t.04.05s0,0,.04,0c.05.08.12.15.15.26-.22.17-.31.42-.5.6-.09.08-.15.17-.23.25.19.24.44.43.67.6.05.06.01.11.01.16.06.04.13.07.18.12.08.06.16.13.23.21.04.07.12.16.23.19.09.04.15.1.22.17.17.18.39.31.59.49.19-.17.36-.37.54-.57.18-.17.3-.36.49-.57,0,0,.08-.05.15-.02.18.12.33.3.51.46.12.1.22.19.36.27.14.06.13.07.17.2-.24.33-.55.58-.82.88-.33.37-.69.73-.98,1.14-.09.12-.19.26-.37.27-.18-.07-.29-.24-.43-.37-.13-.12-.28-.22-.39-.36-.19-.21-.43-.37-.62-.58-.17-.17-.36-.3-.5-.48-.22-.25-.49-.46-.72-.7-.21-.21-.44-.39-.65-.6-.12-.11-.24-.25-.37-.35-.23-.2-.45-.42-.68-.64-.22-.22-.46-.42-.69-.63-.15-.12-.28-.26-.4-.4-.11-.15-.27-.25-.42-.36-.14-.11-.25-.26-.38-.37-.1-.08-.18-.17-.3-.23-.09-.05-.15-.15-.23-.22-.11-.1-.28-.15-.36-.3-.02-.03-.08-.04-.12-.06-.06-.12,0-.22.08-.31Z"/>
          <path class="cls-1" d="M90.37,82.21c.19-.26.35-.49.51-.72.15-.22.3-.46.48-.67.18-.22.26-.52.52-.69.01-.08.05-.14.12-.21.19-.13.41-.24.64-.32.19,0,.39-.03.59.04.21.07.41.15.59.28.25.16.49.33.74.5.14.11.28.2.4.33.14.14.28.25.48.3.07.02.14.07.18.13.04.09.13.12.23.15.12.17.33.27.43.47.09.19.14.4.2.6.06.23-.02.43-.08.65.03.02.04.06.08.07.47.18.95.38,1.46.52.34.09.67.21,1.01.32.11.05.22.08.34.11.2.05.38.11.56.19.11.05.21.07.32.09.24.05.59.14.83.23v.11c-.05.07-.13.13-.19.21-.06.09-.08.19-.15.26-.18.2-.29.47-.51.65-.04,0-.09,0-.13-.02-.19-.13-.54-.21-.76-.27-.21-.05-.38-.18-.58-.23-.11-.03-.2-.08-.3-.12-.45-.14-.85-.36-1.3-.5-.27-.09-.53-.21-.8-.29-.15-.05-.33-.06-.53-.09.11.12.21.17.3.23.17.11.32.24.49.33.18.11.35.27.53.38.19.1.33.24.51.36.16.11.33.21.49.33.18.13.34.27.55.37.1.13.27.13.39.23.12.1.24.17.36.25.03.02.05.05.09.08-.2.44-.51.78-.77,1.17-.21.01-.31-.11-.47-.23-.1-.1-.22-.18-.34-.26-.32-.24-.65-.46-.99-.68-.1-.07-.21-.11-.3-.19-.09-.08-.18-.13-.27-.19-.13-.08-.23-.2-.36-.28-.19-.12-.35-.28-.56-.4-.22-.12-.4-.27-.6-.42-.19-.13-.4-.26-.58-.38-.27-.19-.53-.38-.79-.56-.06-.04-.1-.08-.15-.13-.14-.11-.27-.26-.46-.31-.05,0-.11-.07-.16-.1-.15-.07-.26-.21-.41-.27-.14-.07-.27-.19-.41-.28-.13-.09-.26-.17-.38-.26-.13-.09-.27-.21-.41-.3-.18-.13-.38-.26-.6-.37-.05-.07-.09-.12-.09-.16ZM92.72,81.3c-.15.18-.24.38-.41.54.03.1.14.14.24.22l.14.09c.18.13.34.28.52.4.1.07.21.14.29.23.07.08.17.13.26.19.1.07.17.16.3.18.03,0,.05.02.08.05.06.04.1.1.19.13.09.02.13.12.23.12.07-.05.14-.1.19-.17.08-.08.14-.18.2-.27l.07-.31-.15-.39-1.01-.7c-.24-.15-.51-.26-.76-.39h-.1s-.26.07-.26.07Z"/>
          <path class="cls-1" d="M93.51,77.45c.07-.15.19-.27.24-.42.11-.32.31-.58.4-.91.05-.16.15-.31.25-.45.04-.05.04-.11.06-.18.03-.05,0-.04.06-.09.01-.18.16-.27.18-.37.06-.04.11-.03.17-.02.06.08.17.14.27.16.17.03.3.17.48.18.08.12.25.1.34.21,0,.14-.07.25-.12.37-.05.16-.1.31-.19.43-.12.19-.22.38-.31.57-.01.02-.04.05-.02.09l.24.12c.1.06.22.1.32.17.02.01.04.02.08.03.11.03.22.07.27.19.12.02.25.05.36.14.11,0,.21.04.3.09l.96.48c.1-.19.12-.26.2-.43.04-.08.17-.23.22-.41.06-.05.08-.16.13-.21.08.07.25.13.33.18.15.09.29.07.42.21.03.03.11.04.18.06t.05.04s0,0,.04,0c.07.06.15.12.21.21-.17.22-.18.49-.32.71-.06.1-.1.2-.15.31.25.18.54.3.81.39.07.05.04.1.06.15.07.02.14.03.21.06.09.03.18.08.27.14.06.06.16.12.27.12.1.01.17.06.25.1.21.13.46.19.7.31.14-.22.25-.46.36-.69.12-.22.19-.43.32-.68,0-.01.06-.07.14-.06.21.06.4.2.61.31.14.06.27.12.42.16.15.02.14.03.22.15-.14.38-.37.71-.55,1.07-.21.45-.46.89-.63,1.36-.06.14-.11.3-.29.36-.19-.02-.35-.15-.52-.23-.16-.08-.33-.14-.47-.24-.24-.15-.52-.23-.75-.39-.21-.12-.43-.19-.62-.32-.28-.18-.59-.31-.89-.47-.26-.14-.53-.26-.79-.4-.15-.07-.29-.17-.45-.24-.28-.13-.54-.29-.83-.43-.27-.15-.56-.28-.83-.42-.17-.07-.34-.17-.5-.28-.14-.11-.33-.17-.51-.23-.16-.07-.3-.18-.47-.25-.12-.05-.22-.11-.35-.14-.11-.03-.18-.11-.29-.14-.14-.07-.31-.08-.43-.19-.03-.03-.08-.01-.13-.03-.09-.1-.07-.21,0-.32Z"/>
          <path class="cls-1" d="M105.28,73c.17.17.34.35.4.6.02.12.05.22.1.33.02.08,0,.16-.03.25l.06.12s-.03.08-.03.12c0,.12-.04.21-.04.33-.08.19-.09.34-.15.55-.05.13-.2.32-.27.45-.03.05-.08.08-.12.13-.18.15-.3.36-.52.47-.15.06-.3.11-.46.15-.05,0-.09-.03-.15-.03-.03.01-.04.06-.11.06-.69-.25-1.35-.39-2.07-.7-.11-.09-.04-.23-.02-.36.02-.08.06-.15.09-.23.08-.18.15-.32.18-.52,0-.1.04-.12.11-.18.08.05.15.05.25.07.06,0,.13.03.18.09.08.05.1.02.2.04.15.04.31.09.44.17.08.04.16.07.25.06.04,0,.07,0,.11.01.19.09.41.05.55-.11.04-.04.08-.06.11-.11l.08-.25c.06-.14.06-.28-.06-.4-.02,0-.06,0-.09,0-.09-.13-.24-.14-.37-.19-.19-.07-.57-.22-.78-.24-.06,0-.12-.02-.16,0-.46.08-.92.11-1.38.22-.3.07-.61.08-.92.13-.33.08-.67.06-.98.2-.07.04-.17.02-.25.03-.14.01-.29.06-.43.05-.21-.02-.4.05-.6.04-.09,0-.51.07-.71.03-.21-.04-.37-.1-.57-.17-.12-.03-.2-.11-.31-.12-.08,0-.16-.03-.22-.09-.09-.09-.21-.16-.32-.22-.17-.09-.3-.25-.39-.43-.07-.13-.17-.26-.21-.42s-.1-.33-.04-.51c.04-.1.03-.23.03-.35,0-.19.05-.37.17-.52.03-.05.03-.11.06-.17.1-.19.2-.39.33-.57.12-.17.29-.29.47-.39.11-.06.22-.14.34-.17.17-.03.36-.1.55-.06.07.01.12,0,.16.07.15.01.29.03.36.11.45.21.88.37,1.34.46.02.05.04.09,0,.13-.01,0-.02.03-.03.04,0,.27-.19.48-.25.73-.04.14-.1.25-.1.39-.14.08-.26.08-.39-.01-.04-.04-.1-.02-.16-.04-.24-.06-.46-.18-.7-.25-.12-.03-.22-.08-.34-.1-.08-.03-.14.05-.22,0-.05.16-.19.25-.24.43.03.1-.05.23-.04.37.07.02.05.11.12.15.14.09.42.2.59.23.13.02.25.06.38.11.07.02.13.03.2.02.13,0,.17,0,.28.01.21,0,.28-.1.49-.12.03-.01.06-.03.08-.02.22,0,.45-.04.67-.08.15-.03.27-.07.41-.11.18-.04.35-.03.52-.07.31-.08.53-.17.86-.21.24-.04.35-.1.58-.14.25-.05.81-.12,1.09-.06.09.02.19.03.28.06.14.06.39.11.53.17.17.06.32.16.49.21.17.05.32.15.49.21.12.08.11.09.17.13Z"/>
          <path class="cls-1" d="M97.96,68.89c-.16-.07-.33-.09-.51-.09-.08,0-.18-.08-.24-.05-.09.04-.15,0-.21-.02l.11-.56c.01-.07-.04-.13,0-.22.05-.12.05-.25.11-.38,0-.05-.02-.06-.03-.09l.08-.1c-.06-.07-.02-.15,0-.23.08-.35.09-.72.16-1.06.05-.24.09-.48.13-.72.03-.15.06-.3.08-.45.08-.12.21-.09.28-.05.15.08.31.07.47.12.21.05.41.08.62.11.06.02,0,.1.02.15-.03.14-.02.22-.06.34-.06.13-.04.27-.04.39,0,.15-.1.27-.02.42.17,0,.32.03.47.08.17.06.33.11.5.12.15.02.3.06.44.07.05,0,.07.04.08.06l.05-.06c.05.05.11.07.19.05.09-.02.19.01.28.03.17.04.35.14.52.15.02,0,.04.04.06.06.01,0,.04-.03.05-.03.4.1.81.11,1.25.21.11.06.29.08.46.11.1.02.2.03.3.07.08.04.19.04.27.05.13.01.24.06.36.08.22.04.45.08.69.09.03.08.14,0,.19.07.14-.03.25.05.4.05.12.01.24.06.36.06.05,0,.07.01.11.03.05.04.12.06.17,0,.2.08.4.1.59.13.2.03.39.1.59.07.11.09.02.2.02.31.01.12.01.24-.06.36-.03.04,0,.09,0,.14l-.06.06c0,.2,0,.41-.16.58-.2.08-.41-.11-.61-.02-.2-.06-.41-.1-.62-.13-.2-.04-.4-.11-.61-.15-.2-.04-.41-.03-.61-.16-.01,0-.06.01-.11,0-.33-.1-.68-.17-1.01-.25-.25-.06-.51-.08-.75-.15-.09-.03-.19-.04-.29-.04-.13,0-.25-.05-.4-.07-.26-.04-.51-.1-.77-.15-.12-.02-.23-.06-.34-.09-.16-.04-.34-.07-.5-.1-.22-.05-.44-.09-.66-.14-.09-.03-.18-.01-.28-.07-.08-.04-.18-.02-.26-.05-.14-.03-.27-.05-.4-.1-.1-.03-.21-.03-.33-.05.01.38-.13.72-.12,1.11-.11.11-.22.16-.4.08Z"/>
        </g>
      </g>
      <path class="cls-4" d="M61.07,2.97C29.74,2.97,4.34,28.37,4.34,59.71s25.4,56.73,56.73,56.73,56.73-25.4,56.73-56.73S92.41,2.97,61.07,2.97ZM61.07,110.8c-28.22,0-51.09-22.88-51.09-51.09S32.85,8.61,61.07,8.61s51.09,22.88,51.09,51.09-22.88,51.09-51.09,51.09Z"/>
    </g>
  </g>
  <g id="Wireframe">
    <rect class="cls-3" width="121.33" height="121.33"/>
  </g>
</svg>