<?xml version="1.0" encoding="UTF-8"?>
<svg id="Layer_1" data-name="Layer 1" xmlns="http://www.w3.org/2000/svg" viewBox="0 0 1472.35 615.38">
  <defs>
    <style>
      .cls-1 {
        fill: #231f20;
      }

      .cls-2, .cls-3, .cls-4 {
        fill: #fff;
      }

      .cls-5 {
        fill: none;
      }

      .cls-3 {
        stroke: #231f20;
      }

      .cls-3, .cls-4 {
        stroke-miterlimit: 10;
        stroke-width: 3.91px;
      }

      .cls-6 {
        fill: #e19f3d;
      }

      .cls-4 {
        stroke: #000;
      }
    </style>
  </defs>
  <g>
    <g>
      <rect class="cls-5" x="638" y="26.13" width="834.35" height="589.26"/>
      <polygon class="cls-2" points="946.11 197.81 1166.49 197.81 1166.49 296.3 1160.78 339.94 1145.79 380.59 1119.48 426.54 1086.08 459.3 1055.91 480.92 1016.07 453.13 982.44 412.29 966.65 382.38 953.44 344.26 943.43 298.87 943.43 241.6 943.43 197.81 946.11 197.81"/>
      <path class="cls-2" d="M1095.64,261.96c-.02-.41.83-.9.18-1.43l-.81,1.05c-.68-.43-1.37-1.36-1.01-1.97.65-.82,3.92,2.03,3.18,2.93-.17.42-1.51.01-1.55-.59Z"/>
      <path class="cls-1" d="M985.62,419.78s7.31-3.52,16.57-3.02c9.25.5,12.01,1.43,17.85,3.09,5.55,1.58,9.28,2.79,16.03.29,6.75-2.5,14.5-6.23,26.1-3.91,11.25,2.25,10.63,4.89,19.79,5.38,5.65.3,15.5-4.71,24.49-4.85,7.75-.12,17.23,1.42,19.76,2.69,0,0-7.32,7.39-11.13,12.15-2.99,3.74-25.53,29.27-42.17,40.34-14.62,9.72-17.35,11.07-17.35,11.07,0,0-19.77-12.65-26.91-18.24-2.38-1.87-37.16-33.5-43.04-45Z"/>
      <path class="cls-1" d="M980.59,413.79l-9.88-16.04s6.68-3.24,12.25-4.66c7.09-1.81,9.59-1.53,15.66-1.44,10.28.16,15.88,3.97,24.88,4.91,5.71.59,21.57-5.88,27.19-6.41,5-.47,12.22-.63,23.24,3.7,9.61,3.77,16.33,2.37,17.72,1.98,6.78-1.9,16.14-5.62,28.51-3.99s17.01,5.04,20.13,7.04l-9.09,14.74s-6.39-1.86-12.63-2.91c-7.76-1.31-12.37-1.22-18.94.15-8.74,1.83-9.75,2.99-16.04,3.24-4.13.16-11.34-2-18.07-3.89-9.81-2.75-20.77-.61-26.69,2.03-6.89,3.08-14.12,2.4-17.44,1.37-9.03-2.78-15.11-4.12-20.08-4.37-4.87-.25-13.46-.34-20.73,4.54Z"/>
      <g>
        <path d="M1055.74,193.33h-116.92v6.56s.05,22.07.05,22.07l.05,60.79c.03,13.9-.1,13.46,2,33.53,5.29,44.81,27.14,93.82,59.23,127.01,16.78,17.35,35.16,30.63,55.59,43.25v-13.82c-94.77-57.2-101.72-147.47-103.63-187.54l-.07-60.07c-.03-.32.07-2.02.07-2.39l-.91-18.06h104.53s0-6.06,0-6.06v-5.27"/>
        <path d="M1055.74,193.33h116.92s0,6.56,0,6.56l-.04,22.07-.05,60.79c-.03,13.9.1,13.46-2,33.53-5.29,44.81-27.14,93.82-59.23,127.01-16.78,17.35-35.16,30.63-55.59,43.25v-13.82c105.21-65.18,104.73-167.52,105.21-188.61l-.91-60.6c.03-.32,0-.66,0-1.04l-.91-17.82h-103.4s0-6.06,0-6.06v-5.27"/>
      </g>
      <g id="Swan">
        <circle class="cls-6" cx="1055.68" cy="301.75" r="74.96"/>
        <path d="M1109.02,359.16c-31.05,28.82-79.43,27.88-109.35-2.23s-30.42-81.02.68-111.58c30.03-29.49,77.92-30.13,108.71-1.51,14.11,13.12,22.95,30.97,24.77,50.13,2.32,24.47-6.83,48.49-24.81,65.18ZM1070.83,367.53c3.66-.76,7.81-2.15,11.31-3.64,18.19-7.71,31.88-22.83,37.88-41.66.62-1.96,1.14-3.8,1.54-5.81l.61-3.08.34-2.13c.16-1.01.28-2.1.36-3.11l.37-4.93c.07-.89.07-1.91,0-2.81l-.38-4.92c-.08-1.04-.21-2.06-.36-3.13-1.49-10.63-5.39-20.6-11.56-29.37-1.7-2.42-3.4-4.6-5.4-6.76-1.4-1.51-2.76-2.97-4.31-4.32l-1.4-1.23c-4.59-4.02-10.26-7.63-15.84-10.2-5.32-2.45-10.82-4.07-16.51-5.15-.51-.1-4.84-.67-5.23-.69-4-.11-4.68-.67-8.64-.35l-4.92.4c-6.35.52-13.65,2.48-19.51,4.99-1.16.5-2.22.92-3.31,1.5-2.26,1.21-4.51,2.29-6.65,3.72-7.59,5.07-13,9.95-18.34,17.4-5.88,8.18-9.81,17.39-11.6,27.24-.09.48-.17.88-.23,1.37l-.47,3.51c-.19,1.41-.18,2.7-.35,4.1-.5,4.24.09,6.42.33,10.53.1,1.68.94,6.42,1.38,8.21l.52,2.13c2.62,10.66,9.11,21.61,16.72,29.53,1.43,1.48,2.85,2.72,4.4,4.07,3.83,3.34,7.94,6.09,12.45,8.5,7.31,3.9,15.2,6.25,23.4,7.34.68.09,1.29.25,1.95.19,1.07-.09,2.01.19,3.06.26,2.04.16,4.18.15,6.23,0l4.09-.32c2.75-.22,5.33-.81,8.06-1.38Z"/>
        <path d="M1012.01,312.97c1.79.19,3.39.02,5.08.35,1.02.2,2.14.14,3.2-.02l-7.24-11.19c1.56.32,2.57.99,4.15,1.44-.54-.78-1.07-1.47-1.69-2.21l-5.4-6.45c1.77.58,3,1.27,4.8,2l-2.32-6.85c.78,0,1.36.41,2.03.71l2.81,1.26-.78-2.49c-.04-.13.1-.67.21-.66s.31.03.5.07l2.25.48c.58.13,1.14.22,1.66.18l-1.46-1.34c-.66-.61-1.28-1.05-1.9-1.88,2.37,0,3.66.67,5.69.77l-1.52-3,.39-.35,4.37,1.23-1.79-3.11,5.17,1.25,2.04.42c.5.1.91.24,1.54.14l-3.64-5.84-.08-.48c-.01-.08.36-.03.43.03l3.75,2.87c.45.34.86.59,1.4.94l-1.9-6.53c2.14,1.64,3.46,3.41,5.33,4.99.66-1.13.04-2.67.61-4.45l2.15,1.71,1.55,1.22c1.85,1.46,3.58,2.96,5.31,4.55l1.57,1.44c1.17,1.07,2.32,2.32,3.1,3.68,1.71,3,1.77,7.04,3.47,7.83l5.22,2.4c8.4,3.86,13.27,8.53,17.89,16.54,2,3.47,3.65,7.01,5.1,10.79.56.61,3.67-2.32,4.03-2.77,2.81-3.47,3.66-6.78,3.3-11.21-.17-2.1-.81-3.86-1.7-5.76-1.48-3.16-3.48-6.43-5.44-9.32l-1.15-1.7-5.8-8.44-2.43-3.72c-1.3-2-2.48-4.02-3.52-6.16-1.99-4.1-3.15-8.07-1.57-12.5,1.19-3.34,3.7-5.78,6.75-7.48,2.83-1.58,5.84-2.22,9.07-1.88,4.66.49,9.18,2.2,12.29,5.83.86,1,.69,2.75.81,3.94.25,2.32,1.91,2.07,2.24,4.5.22,1.63-.11,3.18-.83,4.87-1.95-2.3-2.51-3.89-5.83-4.59l-3.16-.66c-3.17-.66-6.87-2.93-7.37-6.27-2.8,1.19-4.71,3.59-5.36,6.48-.35,1.54-.51,2.99.31,4.42.85,1.48,1.98,2.78,3.22,3.99l4.12,4.03c2.02,1.98,4.01,3.86,5.95,5.94,6.22,6.66,11.33,14.36,12.78,23.49.78,4.89.66,8.83-.59,13.64-.98,3.78-2.98,7.04-5.57,9.91-.42.46-.78.83-1.24,1.23-5.57,4.96-12.03,7.32-19.32,8.66-.53.1-5.09.69-5.26.7l-2.94.09c-1.48.05-2.83.3-4.3.05-1.05-.17-2.19.07-3.28-.09l-2.08-.31c-1.1-.17-2.07-.07-3.13-.22-2.3-.32-4.5-.79-6.78-1.32l-1.29-.3c-1.63-.38-3.12-.62-4.8-.4-3.58.48-.16,4.07-7.99,4.87l-3.1.31-.59-.05c-1.43-.11,2.75-2.3,2.8-2.76-8.57-2.54-14.54-4.35-22.26-8.64-2.72-1.51-4.99-3.47-7.1-5.73l-2.13-2.28c-1-1.07-2.63-3.17-3.42-4.71.51.13.63.18,1.18.39-.24-.72-.83-1.37-1.37-2.05l-4.15-5.32c.61-.11.89.25,1.31.53l2.68,1.78c.24-.82-.33-1.24-.68-1.82l-1.72-2.85-2.99-4.73c-.47-.74-1.01-1.38-1.36-2.32,3.01,2.1,5.95,4.04,9.47,5.06,1.52.44,2.98.63,4.53.79l3.67.39ZM1095.64,261.96c.04.6,1.38,1.01,1.55.59.74-.9-2.53-3.76-3.18-2.93-.37.61.32,1.54,1.01,1.97l.81-1.05c.64.52-.21,1.02-.18,1.43Z"/>
      </g>
    </g>
    <g>
      <path d="M1445.32,443.93c7.19.77,13.68.46,20.57-2.42-.13,6.64-16.98,10.39-21.14,11.37-.16,1.78-1.04,3.24-2,4.75l-2.15,3.38c6,4.69,14.68,4.45,22.06,3.36,1.09-.16,3.17-1.52,3.68.06-1.6,4.62-6.45,5.55-10.47,6.75-9.17,2.73-17.79-1.77-26.27-3.41-6.97-1.34-13.01-1.13-19.1-6.83-3.23-3.03-8.86-4.66-11.98-8.82-8.3,2.02-16.4,1.41-25.12-.32-5.66-1.13-11.18-4.75-17.32-4.05-8.77,1-17.17,2.53-25.6-.07-13.26,6.61-26.6,10.88-40.2,15.15l-15.76,4.94c-2.33,4.96-5.99,9.87-11.55,10.99-1.33,7.62,13.59,15.52,5.91,14.96-7.05-1.73-12.78-6.52-17.35-12.19-1.88-2.32-3.2-3.51-5.89-4.16-3.65-.89-6.27-4.19-9.4-4.88-3.27,2.2-6.63,3.24-10.24,4.64,2.92,12.28,6.54,8.34,7.73,14.14-6.01.79-18.98-10.53-21.07-16.18-7.58-.98-12.43-6.62-17.37-11.72-16.8-6.84-36.95-16.21-45.93-33.61-4.32-8.37-8.07-16.38-9.28-25.81-1.62-12.66-1.97-25.73,4.51-37.3,7.89-14.1,16.21-27.44,25.68-40.35,2.28-3.11,3.36-6.33,6.26-9.1,2.25-2.15,4.82-6.88,3.21-10.11-3.18-6.37-23.83-6.94-26.72-35.65-7.05,2.6-15.04,2.53-20.38-2.52-2.25-2.13-1.37-5.65-.94-7.72-3.81-1.36-8.78-4.94-8.38-9.29.48-5.15,9.68-5.3,10.06-5.59.31-.24.73-1.22.33-1.37l-9.89-3.85c-2.1-.82-3.83-2.2-4.12-3.81-.36-2.02-.48-4.49.89-5.93,3.69-3.86,9.08-5.23,14.33-4.91,9.47.58,18.69-1.52,27.78-3.67l8.35-1.98c6.66-1.58,13.19-1.57,19.37,1.52,2.8-1.21,5.52-1.58,8.54-1.73l2.72-16.65c-6.19-7.43-13.05-11.55-18.05-21.06-1.59-3.02-3.4-5.57-5.32-8.38-1.61-2.36-2.4-4.14-5.08-5.74-3.15-1.87-6.1-5.02-10.07-5.17-2.85,3.46-4.78,21.66,3.63,21.6,1.74-3.45-3.6-9.24-.49-9.71s9.17.98,10.2,4.7c.92,3.3-2.98,6.97-5.45,8.48-2.95,1.8-7.54,1.81-11.03-.06-8.26-4.42-12.86-15.9-8.57-24.76,1.74-3.61,6.78-6.8,10.43-7.15,6.39-.62,10.95,3.63,15.84,6.65,10.3,6.35,8.82,14.88,22.82,27.18,3.47,3.04,6.77,5.77,10.38,8.79,3.47,2.34,1.65,19.45,4.01,23.02,8.59,1.21,15.67,6.76,21.7,12.72l3.69-6c5.58-9.06,8.7-19.25,14.31-27.97l4.7-7.31c2.17-3.38,4.79-8.18,9.53-8.54,6.29-.47,11.88,12.73,19.4,15.1,4.69,1.48,9.18,2.29,12.56,5.4,7.73,7.12,9.33,17.16,3.56,26.17-2.82,4.4-6.13,10.23-12.24,11.27-6.32,1.08-14.25.06-20.09-2.49-4.33-1.89-3.76-7.41-4.1-10.9-.6-6.18,1.47-12.65,8.48-13.32,3.44-.33,7.98,1.77,10.85,3.54,3.43,2.12,4.32,6.84,1.8,9.41-1.52,1.54-3.43.45-4.78-.34-4.42-2.57-.19-5.93-2.13-7.23-.65-.44-2.14-1.14-2.77-.68-.78.58-.92,2.27-.92,3.22-.01,6.74,4.21,13.29,11.36,13.36,6.1-3.76,11.7-21.2,4.14-26.38-2.78-1.9-5.85-3.3-9.08-3.89-14.19-2.6-5.88-4.74-14.67-11.74-4.94,3.57-10.06,14.58-12.26,20.09-4.43,11.12-8.72,17.46-13.26,27.4,4.67,11.85,23.54,7.49,35.39,7.86,9.97.31,5.96,8.73,16.39,22.63,2.77,3.7,3.99,8.67,7.71,11.7,3.19,2.6,6.84,4.38,9.36,7.81,1.32,1.8,1.79,5.83.54,7.65-4.84,7.04-15.4.12-20.37.16.15,3.03.04,6.85-2.95,8.37-3.02,1.55-5.84-1.29-7.84-3.38l-12.26-12.85c-1.83,2.25-3.7,3.64-5.88,3.69-2.56.05-3.79-2.36-5.54-4.06l-7.85-7.64c-1.61,1.87-1.42,4.14-2.18,6.46-4.34,13.21-7.19,26.44-9.56,40.07-2.27,13.06-2.4,13.27,3.53,23.99,7.14,12.92,21.43,8.31,31.66,14.14,3.54,2.02,6.94,4.23,10.28,6.83,1.28,1,3.88.72,5.87,1.75,4.42-1.8,8.91-.54,13.45-.46,8.34.16,20.88,4.42,26.25,11.1l7.9-3.2c3.65-1.48,8.73-1.92,12.86-2.06,12.99-.44,15.66.31,24.85,9.98,1.82-2.08,4.13-1.14,6.31-1.28,6.36-.42,11.42,2.33,17.18,4.15,5.36,1.7,8.3,5.97,10.3,10.37,5.65,2.56,11.43,4.66,16.35,8.78l7.98,6.67c5.15,4.3,12.75,14.6,10.86,21.46ZM1406.56,428.48c-2.14,1.25-4.02,1.68-6.04.58-2.49-1.35-2.63-3.4-2.79-5.76-.27-3.93,2.04-5.49,3.7-7.64,3.04-3.96-.01-8.82-2.75-11.54-2.71-2.69-4.93-3.01-8.52-3.64-3.58-.63-7.28-2.04-11.34-.85,2.04.22,1.2,1.86,1.83,2.9,2.67,4.36,4.2,10.74-.24,14.82-3.1,2.85-10.61-.11-10.76-4.16-.16-4.35-.83-7.81-.46-12.01.46-5.22-9.67-10.32-13.11-10.93-7.05-1.25-14.42,1.16-21.02,4.07,2.29,5.08,8.17,19.62-.11,20.72-1.89.25-3.92-1.54-4.74-4.07-2.71-8.42.87-13.71-7.61-20.63-6-4.89-14.4-6.97-22.32-5.9-1.12.15-2.96-.68-4.32-.47-2.84.43-5.23.54-8.25-.05,3.55,3.72,9.95,17.56,6.88,22.35-1.11,1.73-4.87,1.66-6.64.61s-2.99-3.3-3.69-5.63c-2.38-7.93-5.34-15.19-9.76-22.2-1.35-2.15-3.31-2.51-5.79-3.31-13.77-4.48-20.57.39-33.54-11.9-2.88-2.73-5.46-6.55-5.81-10.99-1.36-17.42,6.77-28.5,9.32-47.61,1.22-9.21,4-18.31,3.62-27.77-1.35-2.05-8.88-15.9-8.46-17.27.49-1.59,2.09-2.46,3.25-2.5,1.99-.07,2.47,1.63,3.24,3.04,1.42,2.61,4.23,4.55,5.4,7.27,1.53,3.57,3.6,6.23,5.84,9.28,3.09,4.21,6.07,7.99,11.28,9.82l4.13-4.88c2.61.7,4.38,2.45,5.45,4.79,2.57,5.58,6.24,10.05,11.15,13.95.44-2.15-2.6-8.45,1.82-9.6,3.64-.95,2.82,3.04,8.41,5.15,1.18.45,3.43-1.43,3.57-2.85.26-2.63-.9-4.93-2.56-6.86-9.22-10.74-13.35-14.33-16.89-28.9-7.12.91-23.21.59-29.06-2.04-19.62-8.83-13.52-17.15-33.42-27.38-10.18-2.83-21.73-2.04-30.99,3.5-10.27,6.14-18.6,16.54-22.56,27.53-4.45,12.36-1.09,16.73,6.43,28.24,3.53,5.4,9.31,8.62,14.75,12.19,7.56,8.42,4.59,14.84-.37,23.83-4.14,7.5-9.62,13.82-13.62,21.35-3.02,5.68-7.09,10.25-9.8,15.89-11.34,23.6-5.93,23.95-7.8,31.38-.7,2.77-.35,4.62.02,7.27.68,4.85.26,9.61,2.41,14.22,1.98,4.24,2.14,9.54,5.26,13.41,7.4,9.17,7.19,11.62,18.01,17.17,2.7,1.39,5.05,3.55,7.74,4.94l6.79,3.5c-4.21-18.33-6.21-39.91,6.67-54.65,6.84-7.82,16.2-8.99,25.45-4.85,6.46,2.89,10.65,8.88,13.48,15.75,5.67-7.68,20.64-10.86,28.6-4.79,7.56,5.77,9.41,13,8.21,21.73l-1.79,13.03c-1.39,10.12,1.92,9.42,3.53,17.31,3.96-.67,7.45-2.49,11.11-3.84,7.23-2.68,24.23-7.89,31.85-9.7,3.24-.77,7.3-.99,9.05-3.95-.72-1.89-.11-3.42.91-5.65.9-1.97,4.92-4.84,7.31-2.84,2.61,2.18,1.97,7.26.55,10.23,11.87,1.21,22.55,3.61,31.34-5.82,1.3-1.39,1.73-2.79,3.41-3.4,2.1-.76,6.78.96,6.84,3.02.08,2.55-4.82,7.22-7.78,7.48,6.37,3,12.17,4.51,18.94,4.13,3.33-.19,7.59.71,10.28-1.79,2.82-2.63,7.62-1.09,9.17,2.25,2.21,4.77,7.51,6.36,12.31,8.51.04-1.35,4.11-4.83,5.46-4.82,4.18.02,4.31,2.96,7.61,4.67,11.01-11.73-10.85-38.4-22.98-42.69-.05,6.39,1.48,12.61-4.71,16.24ZM1140.39,260c.45,2.39-2.21,3.82-3.9,5.77,2.92,3.45,16.11-1,17.75-4.94,1.84-4.41,2.17-9.24,4.39-13.27,5.56-10.07,11.88-18.42,23.66-21.95-15.24-.34-29.94,11.32-45.46,7.94-.85.25-2.78.9-3.51,1.12s-.88,1.89-.7,2.97c3.89,1.13,15.51,6.55,10.88,11.93-1.98,2.3-9.81.57-11.68,4.77-2.02,4.53,8.05,2.89,8.57,5.69ZM1225.37,469.09c.97.31,6.38-1.94,5.29-3.94-7.52-13.79-7.32-36.21,1.35-49.8-.94-4.53-3.92-9.56-7.77-12.83-7.89-6.69-20.1-2.57-24.59,6.85-5.05,10.6-3.45,27.6-1.07,39.22.63,3.05,8.47,19.23,12.45,18.73,1.37-2.9,3.34-4.12,5.95-4.26,5.42-.28,6.42,5.4,8.39,6.04ZM1263.21,470.04c7.35-5.19,1.93-17.99,1.58-23.39-.94-14.15,7.52-26.09-.86-34.87-7.4-7.75-21.29-1.36-25.87,6.46-3.91,6.68-6.4,15.97-5.99,24.23.38,7.66,3.52,15.55,6.88,21.8,1.88,3.49,5.96,5.08,8.81,6.36,2.68-4.23,8.14-4.63,12-1.36.93.79,2.11,1.7,3.44.76Z"/>
      <path class="cls-6" d="M1434.24,454.93c-3.3-1.71-3.43-4.65-7.61-4.67-1.34,0-5.42,3.47-5.46,4.82-4.8-2.15-10.09-3.73-12.31-8.51-1.55-3.34-6.36-4.88-9.17-2.25s-6.95,1.6-10.28,1.79c-6.77.38-12.57-1.12-18.94-4.13,2.96-.26,7.85-4.93,7.78-7.48-.06-2.06-4.74-3.78-6.84-3.02-1.68.61-2.11,2.01-3.41,3.4-8.79,9.43-19.47,7.03-31.34,5.82,1.42-2.97,2.06-8.05-.55-10.23-2.39-2-6.41.86-7.31,2.84-1.02,2.23-1.64,3.76-.91,5.65-1.74,2.96-5.8,3.18-9.05,3.95-7.62,1.8-24.62,7.02-31.85,9.7-3.66,1.36-7.15,3.17-11.11,3.84-1.6-7.89-4.91-7.2-3.53-17.31l1.79-13.03c1.2-8.73-.65-15.96-8.21-21.73-7.96-6.07-22.93-2.89-28.6,4.79-2.83-6.87-7.02-12.86-13.48-15.75-9.25-4.14-18.61-2.97-25.45,4.85-12.89,14.74-10.89,36.32-6.67,54.65l-6.79-3.5c-2.7-1.39-5.04-3.55-7.74-4.94-10.82-5.55-10.61-8-18.01-17.17-3.12-3.87-3.28-9.18-5.26-13.41-2.15-4.61-1.74-9.37-2.41-14.22-.37-2.65-.72-4.5-.02-7.27,1.87-7.43-3.54-7.77,7.8-31.38,2.71-5.64,6.78-10.2,9.8-15.89,4-7.53,9.48-13.86,13.62-21.35,4.96-8.99,7.92-15.42.37-23.83-5.44-3.57-11.23-6.78-14.75-12.19-7.52-11.51-10.88-15.89-6.43-28.24,3.96-10.99,12.29-21.39,22.56-27.53,9.26-5.54,20.82-6.34,30.99-3.5,19.9,10.24,13.8,18.55,33.42,27.38,5.84,2.63,21.94,2.94,29.06,2.04,3.53,14.57,7.67,18.16,16.89,28.9,1.66,1.93,2.82,4.23,2.56,6.86-.14,1.42-2.38,3.3-3.57,2.85-5.59-2.11-4.78-6.1-8.41-5.15-4.42,1.15-1.38,7.45-1.82,9.6-4.91-3.9-8.58-8.37-11.15-13.95-1.08-2.34-2.84-4.09-5.45-4.79l-4.13,4.88c-5.21-1.82-8.19-5.61-11.28-9.82-2.23-3.05-4.31-5.71-5.84-9.28-1.17-2.72-3.98-4.66-5.4-7.27-.77-1.41-1.24-3.12-3.24-3.04-1.16.04-2.75.91-3.25,2.5-.42,1.37,7.11,15.23,8.46,17.27.38,9.46-2.39,18.56-3.62,27.77-2.54,19.11-10.68,30.19-9.32,47.61.35,4.43,2.93,8.26,5.81,10.99,12.97,12.29,19.77,7.43,33.54,11.9,2.48.81,4.44,1.16,5.79,3.31,4.42,7.01,7.38,14.27,9.76,22.2.7,2.33,1.92,4.58,3.69,5.63s5.53,1.13,6.64-.61c3.07-4.79-3.33-18.63-6.88-22.35,3.02.6,5.41.49,8.25.05,1.36-.21,3.21.62,4.32.47,7.92-1.07,16.32,1,22.32,5.9,8.48,6.92,4.9,12.21,7.61,20.63.81,2.53,2.84,4.32,4.74,4.07,8.27-1.11,2.4-15.64.11-20.72,6.6-2.91,13.96-5.32,21.02-4.07,3.45.61,13.57,5.71,13.11,10.93-.37,4.19.3,7.65.46,12.01.15,4.05,7.66,7.01,10.76,4.16,4.44-4.08,2.9-10.46.24-14.82-.64-1.04.21-2.68-1.83-2.9,4.06-1.19,7.77.22,11.34.85,3.6.63,5.81.95,8.52,3.64,2.74,2.72,5.8,7.58,2.75,11.54-1.65,2.15-3.97,3.7-3.7,7.64.16,2.37.31,4.41,2.79,5.76,2.01,1.09,3.9.67,6.04-.58,6.19-3.63,4.66-9.85,4.71-16.24,12.12,4.29,33.99,30.96,22.98,42.69ZM1186.29,255.18c5.67-3.58,11.44-15.36,6.23-20.36-1.61-1.55-3.7-1.73-5.61-1.54-4.97.48-7.81,3.26-10.74,6.79-3.64,4.37-5.27,10.37-.62,15.03,2.83,2.84,7.29,2.27,10.75.08ZM1216.18,259.05c2.04-4.51,3.62-10.61.44-15.11-2.74-3.89-13.19-3.84-19.44,7.35-1.83,3.28-2.87,6.15-2,10.01.6,2.63,1.68,4.98,3.59,6.29,5.86,4.02,14.14-1.33,17.4-8.54ZM1191.17,270.7c1.51-4.79-3.42-8.36-7.62-9.56-1.8-.51-3.51-.76-5.14.42-1.13.81-2.73,2.49-2.38,4.37.95,5.11,6.16,8.51,11.28,7.6,1.96-.35,3.48-1.62,3.86-2.83ZM1200.97,280.52c-4.66,3.6-14.72,4.27-19.19,2.68-4.98-1.78-9.98-5.59-11.73-10.08l-2.57-6.57c-.19-.48-1.59-.26-1.75.09-1.8,3.9,1.82,18.92,13.36,22.13,8.71,2.43,17.61,0,22.98-7.09.33-.44-.83-1.36-1.1-1.16Z"/>
      <path class="cls-6" d="M1216.98,463.05c5.42-.28,6.42,5.4,8.39,6.04.97.31,6.38-1.94,5.29-3.94-7.52-13.79-7.32-36.21,1.35-49.8-.94-4.53-3.92-9.56-7.77-12.83-7.89-6.69-20.1-2.57-24.59,6.85-5.05,10.6-3.45,27.6-1.07,39.22.63,3.05,8.47,19.23,12.45,18.73,1.37-2.9,3.34-4.12,5.95-4.26Z"/>
      <path class="cls-6" d="M1259.77,469.28c.93.79,2.11,1.7,3.44.76,7.35-5.19,1.93-17.99,1.58-23.39-.94-14.15,7.52-26.09-.86-34.87-7.4-7.75-21.29-1.36-25.87,6.46-3.91,6.68-6.4,15.97-5.99,24.23.38,7.66,3.52,15.55,6.88,21.8,1.88,3.49,5.96,5.08,8.81,6.36,2.68-4.23,8.14-4.63,12-1.36Z"/>
      <path class="cls-6" d="M1131.82,254.32c-2.02,4.53,8.05,2.89,8.57,5.69.45,2.39-2.21,3.82-3.9,5.77,2.92,3.45,16.11-1,17.75-4.94,1.84-4.41,2.17-9.24,4.39-13.27,5.56-10.07,11.88-18.42,23.66-21.95-15.24-.34-29.94,11.32-45.46,7.94-.85.25-2.78.9-3.51,1.12s-.88,1.89-.7,2.97c3.89,1.13,15.51,6.55,10.88,11.93-1.98,2.3-9.81.57-11.68,4.77Z"/>
      <path d="M1195.19,261.3c-.88-3.86.16-6.73,2-10.01,6.25-11.19,16.7-11.24,19.44-7.35,3.17,4.51,1.6,10.6-.44,15.11-3.27,7.22-11.55,12.56-17.4,8.54-1.91-1.31-2.99-3.66-3.59-6.29ZM1206.33,263.65c-2.24.76-4.16.62-6.11-1.49.38,1.98,1.88,2.54,3.31,2.72,7.59.96,13.9-11.49,10.59-17.63-2.21-4.09-7.51-.53-9.6,1.31-3.84,3.37-7.86,7.33-4.65,13.19-1.85-5.2,1.07-10.11,5.67-13.16,2.29-1.52,3.95-1.62,6.16-.4,2.27,1.25,2.36,3.23,1.95,5.98-.69,4.57-3.11,8.07-7.31,9.49ZM1209.1,254.81c-1.3,2.22-2.32,4.16-4.45,6.27,2.22-1,4.56-3.31,4.45-6.27Z"/>
      <path d="M1202.07,281.68c.33-.44-.83-1.36-1.1-1.16-4.66,3.6-14.72,4.27-19.19,2.68-4.98-1.78-9.98-5.59-11.73-10.08l-2.57-6.57c-.19-.48-1.59-.26-1.75.09-1.8,3.9,1.82,18.92,13.36,22.13,8.71,2.43,17.61,0,22.98-7.09Z"/>
      <path d="M1187.31,273.52c1.96-.35,3.48-1.62,3.86-2.83,1.51-4.79-3.42-8.36-7.62-9.56-1.8-.51-3.51-.76-5.14.42-1.13.81-2.73,2.49-2.38,4.37.95,5.11,6.16,8.51,11.28,7.6Z"/>
      <path class="cls-2" d="M1213.64,254.16c-.69,4.57-3.11,8.07-7.31,9.49-2.24.76-4.16.62-6.11-1.49.38,1.98,1.88,2.54,3.31,2.72,7.59.96,13.9-11.49,10.59-17.63-2.21-4.09-7.51-.53-9.6,1.31-3.84,3.37-7.86,7.33-4.65,13.19-1.85-5.2,1.07-10.11,5.67-13.16,2.29-1.52,3.95-1.62,6.16-.4,2.27,1.25,2.36,3.23,1.95,5.98Z"/>
      <path class="cls-2" d="M1204.65,261.08c2.22-1,4.56-3.31,4.45-6.27-1.3,2.22-2.32,4.16-4.45,6.27Z"/>
      <g>
        <path d="M1176.17,240.07c2.93-3.52,5.77-6.31,10.74-6.79,1.92-.19,4,0,5.61,1.54,5.21,5.01-.56,16.78-6.23,20.36-3.46,2.19-7.92,2.76-10.75-.08-4.64-4.66-3.01-10.66.62-15.03ZM1189.44,240.9c1.54,6.62-3.29,11.66-9.95,12.43,6.98,3.04,12.57-9.52,10.9-13.1-.56-1.21-1.81-3.22-3.63-3.27-5.69-.18-11.15,8.89-10.75,12.04.18,1.44.77,3.83,2.89,4.34-1.78-1.92-2.61-3.51-2.03-6.1.86-3.85,4.06-7.57,8.36-8.92,1.36-.43,3.92,1.39,4.2,2.58ZM1185.49,245.77l-3.81,4.62c2.22-.58,3.28-2.6,3.81-4.62Z"/>
        <path class="cls-2" d="M1185.24,238.32c1.36-.43,3.92,1.39,4.2,2.58,1.54,6.62-3.29,11.66-9.95,12.43,6.98,3.04,12.57-9.52,10.9-13.1-.56-1.21-1.81-3.22-3.63-3.27-5.69-.18-11.15,8.89-10.75,12.04.18,1.44.77,3.83,2.89,4.34-1.78-1.92-2.61-3.51-2.03-6.1.86-3.85,4.06-7.57,8.36-8.92Z"/>
        <path class="cls-2" d="M1181.67,250.39c2.22-.58,3.28-2.6,3.81-4.62l-3.81,4.62Z"/>
      </g>
    </g>
    <g>
      <path d="M678.26,422.47l7.98-6.67c4.93-4.12,10.71-6.22,16.35-8.78,2-4.4,4.94-8.67,10.3-10.37,5.76-1.82,10.82-4.57,17.18-4.15,2.18.14,4.49-.8,6.31,1.28,9.18-9.67,11.86-10.42,24.85-9.98,4.13.14,9.21.58,12.86,2.06l7.9,3.2c5.37-6.68,17.92-10.95,26.25-11.1,4.54-.09,9.02-1.34,13.45.46,1.99-1.04,4.58-.76,5.87-1.75,3.34-2.6,6.74-4.81,10.28-6.83,10.22-5.83,24.52-1.22,31.66-14.14,5.93-10.73,5.8-10.93,3.53-23.99-2.37-13.63-5.22-26.86-9.56-40.07-.76-2.32-.57-4.59-2.18-6.46l-7.85,7.64c-1.75,1.7-2.98,4.11-5.54,4.06-2.18-.04-4.05-1.44-5.88-3.69l-12.26,12.85c-1.99,2.09-4.81,4.93-7.84,3.38s-3.1-5.35-2.95-8.37c-4.97-.03-15.54,6.88-20.37-.16-1.25-1.82-.78-5.85.54-7.65,2.52-3.43,6.17-5.21,9.36-7.81,3.72-3.03,4.94-8,7.71-11.7,10.43-13.91,6.42-22.32,16.39-22.63,11.85-.37,30.72,3.98,35.39-7.86-4.55-9.94-8.83-16.27-13.26-27.4-2.19-5.51-7.32-16.52-12.26-20.09-8.79,7-.48,9.14-14.67,11.74-3.23.59-6.31,1.99-9.08,3.89-7.56,5.18-1.96,22.62,4.14,26.38,7.16-.08,11.38-6.63,11.36-13.36,0-.95-.14-2.64-.92-3.22-.63-.47-2.12.24-2.77.68-1.93,1.3,2.29,4.66-2.13,7.23-1.36.79-3.26,1.88-4.78.34-2.52-2.57-1.64-7.29,1.8-9.41,2.86-1.77,7.41-3.87,10.85-3.54,7.01.67,9.08,7.14,8.48,13.32-.34,3.49.23,9.01-4.1,10.9-5.84,2.55-13.77,3.57-20.09,2.49-6.11-1.04-9.43-6.87-12.24-11.27-5.77-9.01-4.17-19.04,3.56-26.17,3.38-3.11,7.87-3.93,12.56-5.4,7.52-2.36,13.11-15.56,19.4-15.1,4.73.35,7.36,5.16,9.53,8.54l4.7,7.31c5.6,8.72,8.73,18.91,14.31,27.97l3.69,6c6.03-5.96,13.11-11.51,21.7-12.72,2.36-3.57.54-20.68,4.01-23.02,3.61-3.03,6.91-5.75,10.38-8.79,14-12.3,12.52-20.83,22.82-27.18,4.89-3.01,9.46-7.27,15.84-6.65,3.65.35,8.68,3.55,10.43,7.15,4.29,8.87-.31,20.35-8.57,24.76-3.49,1.87-8.09,1.86-11.03.06-2.47-1.51-6.37-5.18-5.45-8.48,1.04-3.72,7.16-5.16,10.2-4.7,3.11.48-2.24,6.26-.49,9.71,8.42.06,6.49-18.14,3.63-21.6-3.97.14-6.92,3.3-10.07,5.17-2.69,1.59-3.47,3.38-5.08,5.74-1.92,2.81-3.73,5.36-5.32,8.38-5,9.51-11.87,13.63-18.05,21.06l2.72,16.65c3.02.15,5.74.52,8.54,1.73,6.18-3.09,12.7-3.1,19.37-1.52l8.35,1.98c9.09,2.15,18.31,4.26,27.78,3.67,5.25-.32,10.65,1.05,14.33,4.91,1.38,1.44,1.25,3.91.89,5.93-.29,1.61-2.02,2.99-4.12,3.81l-9.89,3.85c-.39.15.02,1.13.33,1.37.38.29,9.58.44,10.06,5.59.41,4.35-4.57,7.94-8.38,9.29.43,2.07,1.3,5.59-.94,7.72-5.33,5.05-13.33,5.13-20.38,2.52-2.89,28.71-23.53,29.28-26.72,35.65-1.61,3.23.96,7.96,3.21,10.11,2.9,2.77,3.98,5.99,6.26,9.1,9.47,12.91,17.79,26.25,25.68,40.35,6.48,11.57,6.13,24.65,4.51,37.3-1.21,9.43-4.97,17.44-9.28,25.81-8.97,17.4-29.12,26.77-45.93,33.61-4.94,5.1-9.79,10.74-17.37,11.72-2.09,5.65-15.06,16.97-21.07,16.18,1.19-5.8,4.8-1.86,7.73-14.14-3.62-1.4-6.97-2.44-10.24-4.64-3.13.69-5.75,4-9.4,4.88-2.69.65-4.01,1.84-5.89,4.16-4.58,5.67-10.3,10.46-17.35,12.19-7.67.56,7.25-7.34,5.91-14.96-5.55-1.12-9.21-6.03-11.55-10.99l-15.76-4.94c-13.6-4.27-26.94-8.54-40.2-15.15-8.42,2.59-16.83,1.07-25.6.07-6.15-.7-11.66,2.92-17.32,4.05-8.72,1.74-16.82,2.35-25.12.32-3.12,4.16-8.75,5.79-11.98,8.82-6.09,5.7-12.13,5.49-19.1,6.83-8.48,1.64-17.1,6.14-26.27,3.41-4.02-1.2-8.87-2.13-10.47-6.75.52-1.58,2.59-.22,3.68-.06,7.38,1.1,16.05,1.34,22.06-3.36l-2.15-3.38c-.96-1.51-1.84-2.97-2-4.75-4.16-.98-21.02-4.73-21.14-11.37,6.89,2.88,13.38,3.19,20.57,2.42-1.89-6.86,5.71-17.16,10.86-21.46ZM701.45,412.24c-12.12,4.29-33.99,30.96-22.98,42.69,3.3-1.71,3.43-4.65,7.61-4.67,1.34,0,5.42,3.47,5.46,4.82,4.8-2.15,10.09-3.73,12.31-8.51,1.55-3.34,6.36-4.88,9.17-2.25s6.95,1.6,10.28,1.79c6.77.38,12.57-1.12,18.94-4.13-2.96-.26-7.85-4.93-7.78-7.48.06-2.06,4.74-3.78,6.84-3.02,1.68.61,2.11,2.01,3.41,3.4,8.79,9.43,19.47,7.03,31.34,5.82-1.42-2.97-2.06-8.05.55-10.23,2.39-2,6.41.86,7.31,2.84,1.02,2.23,1.64,3.76.91,5.65,1.74,2.96,5.8,3.18,9.05,3.95,7.62,1.8,24.62,7.02,31.85,9.7,3.66,1.36,7.15,3.17,11.11,3.84,1.6-7.89,4.91-7.2,3.53-17.31l-1.79-13.03c-1.2-8.73.65-15.96,8.21-21.73,7.96-6.07,22.93-2.89,28.6,4.79,2.83-6.87,7.02-12.86,13.48-15.75,9.25-4.14,18.61-2.97,25.45,4.85,12.89,14.74,10.89,36.32,6.67,54.65l6.79-3.5c2.7-1.39,5.04-3.55,7.74-4.94,10.82-5.55,10.61-8,18.01-17.17,3.12-3.87,3.28-9.18,5.26-13.41,2.15-4.61,1.74-9.37,2.41-14.22.37-2.65.72-4.5.02-7.27-1.87-7.43,3.54-7.77-7.8-31.38-2.71-5.64-6.78-10.2-9.8-15.89-4-7.53-9.48-13.86-13.62-21.35-4.96-8.99-7.92-15.42-.37-23.83,5.44-3.57,11.23-6.78,14.75-12.19,7.52-11.51,10.88-15.89,6.43-28.24-3.96-10.99-12.29-21.39-22.56-27.53-9.26-5.54-20.82-6.34-30.99-3.5-19.9,10.24-13.8,18.55-33.42,27.38-5.84,2.63-21.94,2.94-29.06,2.04-3.53,14.57-7.67,18.16-16.89,28.9-1.66,1.93-2.82,4.23-2.56,6.86.14,1.42,2.38,3.3,3.57,2.85,5.59-2.11,4.78-6.1,8.41-5.15,4.42,1.15,1.38,7.45,1.82,9.6,4.91-3.9,8.58-8.37,11.15-13.95,1.08-2.34,2.84-4.09,5.45-4.79l4.13,4.88c5.21-1.82,8.19-5.61,11.28-9.82,2.23-3.05,4.31-5.71,5.84-9.28,1.17-2.72,3.98-4.66,5.4-7.27.77-1.41,1.24-3.12,3.24-3.04,1.16.04,2.75.91,3.25,2.5.42,1.37-7.11,15.23-8.46,17.27-.38,9.46,2.39,18.56,3.62,27.77,2.54,19.11,10.68,30.19,9.32,47.61-.35,4.43-2.93,8.26-5.81,10.99-12.97,12.29-19.77,7.43-33.54,11.9-2.48.81-4.44,1.16-5.79,3.31-4.42,7.01-7.38,14.27-9.76,22.2-.7,2.33-1.92,4.58-3.69,5.63s-5.53,1.13-6.64-.61c-3.07-4.79,3.33-18.63,6.88-22.35-3.02.6-5.41.49-8.25.05-1.36-.21-3.21.62-4.32.47-7.92-1.07-16.32,1-22.32,5.9-8.48,6.92-4.9,12.21-7.61,20.63-.81,2.53-2.84,4.32-4.74,4.07-8.27-1.11-2.4-15.64-.11-20.72-6.6-2.91-13.96-5.32-21.02-4.07-3.45.61-13.57,5.71-13.11,10.93.37,4.19-.3,7.65-.46,12.01-.15,4.05-7.66,7.01-10.76,4.16-4.44-4.08-2.9-10.46-.24-14.82.64-1.04-.21-2.68,1.83-2.9-4.06-1.19-7.77.22-11.34.85s-5.81.95-8.52,3.64c-2.74,2.72-5.8,7.58-2.75,11.54,1.65,2.15,3.97,3.7,3.7,7.64-.16,2.37-.31,4.41-2.79,5.76-2.01,1.09-3.9.67-6.04-.58-6.19-3.63-4.66-9.85-4.71-16.24ZM980.89,254.32c-1.87-4.2-9.7-2.46-11.68-4.77-4.62-5.38,7-10.8,10.88-11.93.19-1.08.05-2.75-.7-2.97s-2.66-.86-3.51-1.12c-15.52,3.38-30.22-8.28-45.46-7.94,11.78,3.53,18.1,11.89,23.66,21.95,2.23,4.04,2.56,8.86,4.39,13.27,1.64,3.94,14.83,8.39,17.75,4.94-1.69-1.95-4.35-3.38-3.9-5.77.52-2.79,10.59-1.15,8.57-5.69ZM895.73,463.05c2.61.14,4.58,1.35,5.95,4.26,3.99.5,11.83-15.68,12.45-18.73,2.38-11.62,3.98-28.61-1.07-39.22-4.49-9.42-16.7-13.53-24.59-6.85-3.85,3.26-6.84,8.29-7.77,12.83,8.67,13.6,8.87,36.01,1.35,49.8-1.09,2,4.32,4.26,5.29,3.94,1.97-.64,2.97-6.32,8.39-6.04ZM852.95,469.28c3.86-3.27,9.32-2.87,12,1.36,2.85-1.28,6.94-2.87,8.81-6.36,3.37-6.25,6.5-14.14,6.88-21.8.41-8.26-2.08-17.55-5.99-24.23-4.57-7.82-18.47-14.22-25.87-6.46-8.38,8.78.08,20.72-.86,34.87-.36,5.4-5.77,18.2,1.58,23.39,1.33.94,2.51.03,3.44-.76Z"/>
      <path class="cls-6" d="M701.45,412.24c.05,6.39-1.48,12.61,4.71,16.24,2.14,1.25,4.02,1.68,6.04.58,2.49-1.35,2.63-3.4,2.79-5.76.27-3.93-2.04-5.49-3.7-7.64-3.04-3.96.01-8.82,2.75-11.54,2.71-2.69,4.93-3.01,8.52-3.64s7.28-2.04,11.34-.85c-2.04.22-1.2,1.86-1.83,2.9-2.67,4.36-4.2,10.74.24,14.82,3.1,2.85,10.61-.11,10.76-4.16.16-4.35.83-7.81.46-12.01-.46-5.22,9.67-10.32,13.11-10.93,7.05-1.25,14.42,1.16,21.02,4.07-2.29,5.08-8.17,19.62.11,20.72,1.89.25,3.92-1.54,4.74-4.07,2.71-8.42-.87-13.71,7.61-20.63,6-4.89,14.4-6.97,22.32-5.9,1.12.15,2.96-.68,4.32-.47,2.84.43,5.23.54,8.25-.05-3.55,3.72-9.95,17.56-6.88,22.35,1.11,1.73,4.87,1.66,6.64.61s2.99-3.3,3.69-5.63c2.38-7.93,5.34-15.19,9.76-22.2,1.35-2.15,3.31-2.51,5.79-3.31,13.77-4.48,20.57.39,33.54-11.9,2.88-2.73,5.46-6.55,5.81-10.99,1.36-17.42-6.77-28.5-9.32-47.61-1.22-9.21-4-18.31-3.62-27.77,1.35-2.05,8.88-15.9,8.46-17.27-.49-1.59-2.09-2.46-3.25-2.5-1.99-.07-2.47,1.63-3.24,3.04-1.42,2.61-4.23,4.55-5.4,7.27-1.53,3.57-3.6,6.23-5.84,9.28-3.09,4.21-6.07,7.99-11.28,9.82l-4.13-4.88c-2.61.7-4.38,2.45-5.45,4.79-2.57,5.58-6.24,10.05-11.15,13.95-.44-2.15,2.6-8.45-1.82-9.6-3.64-.95-2.82,3.04-8.41,5.15-1.18.45-3.43-1.43-3.57-2.85-.26-2.63.9-4.93,2.56-6.86,9.22-10.74,13.35-14.33,16.89-28.9,7.12.91,23.21.59,29.06-2.04,19.62-8.83,13.52-17.15,33.42-27.38,10.18-2.83,21.73-2.04,30.99,3.5,10.27,6.14,18.6,16.54,22.56,27.53,4.45,12.36,1.09,16.73-6.43,28.24-3.53,5.4-9.31,8.62-14.75,12.19-7.56,8.42-4.59,14.84.37,23.83,4.14,7.5,9.62,13.82,13.62,21.35,3.02,5.68,7.09,10.25,9.8,15.89,11.34,23.6,5.93,23.95,7.8,31.38.7,2.77.35,4.62-.02,7.27-.68,4.85-.26,9.61-2.41,14.22-1.98,4.24-2.14,9.54-5.26,13.41-7.4,9.17-7.19,11.62-18.01,17.17-2.7,1.39-5.05,3.55-7.74,4.94l-6.79,3.5c4.21-18.33,6.21-39.91-6.67-54.65-6.84-7.82-16.2-8.99-25.45-4.85-6.46,2.89-10.65,8.88-13.48,15.75-5.67-7.68-20.64-10.86-28.6-4.79-7.56,5.77-9.41,13-8.21,21.73l1.79,13.03c1.39,10.12-1.92,9.42-3.53,17.31-3.96-.67-7.45-2.49-11.11-3.84-7.23-2.68-24.23-7.89-31.85-9.7-3.24-.77-7.3-.99-9.05-3.95.72-1.89.11-3.42-.91-5.65-.9-1.97-4.92-4.84-7.31-2.84-2.61,2.18-1.97,7.26-.55,10.23-11.87,1.21-22.55,3.61-31.34-5.82-1.3-1.39-1.73-2.79-3.41-3.4-2.1-.76-6.78.96-6.84,3.02-.08,2.55,4.82,7.22,7.78,7.48-6.37,3-12.17,4.51-18.94,4.13-3.33-.19-7.59.71-10.28-1.79-2.82-2.63-7.62-1.09-9.17,2.25-2.21,4.77-7.51,6.36-12.31,8.51-.04-1.35-4.11-4.83-5.46-4.82-4.18.02-4.31,2.96-7.61,4.67-11.01-11.73,10.85-38.4,22.98-42.69ZM937.17,255.1c4.64-4.66,3.01-10.66-.62-15.03-2.93-3.52-5.77-6.31-10.74-6.79-1.92-.19-4,0-5.61,1.54-5.21,5.01.56,16.78,6.23,20.36,3.46,2.19,7.92,2.76,10.75-.08ZM913.94,267.59c1.91-1.31,2.99-3.66,3.59-6.29.88-3.86-.16-6.73-2-10.01-6.25-11.19-16.7-11.24-19.44-7.35-3.17,4.51-1.6,10.6.44,15.11,3.27,7.22,11.55,12.56,17.4,8.54ZM925.4,273.52c5.12.92,10.33-2.49,11.28-7.6.35-1.88-1.25-3.56-2.38-4.37-1.63-1.18-3.34-.93-5.14-.42-4.2,1.2-9.13,4.77-7.62,9.56.38,1.2,1.9,2.48,3.86,2.83ZM910.65,281.68c5.37,7.08,14.26,9.51,22.98,7.09,11.53-3.21,15.15-18.23,13.36-22.13-.16-.35-1.56-.57-1.75-.09l-2.57,6.57c-1.75,4.49-6.75,8.3-11.73,10.08-4.46,1.59-14.53.92-19.19-2.68-.27-.21-1.43.72-1.1,1.16Z"/>
      <path class="cls-6" d="M895.73,463.05c-5.42-.28-6.42,5.4-8.39,6.04-.97.31-6.38-1.94-5.29-3.94,7.52-13.79,7.32-36.21-1.35-49.8.94-4.53,3.92-9.56,7.77-12.83,7.89-6.69,20.1-2.57,24.59,6.85,5.05,10.6,3.45,27.6,1.07,39.22-.63,3.05-8.47,19.23-12.45,18.73-1.37-2.9-3.34-4.12-5.95-4.26Z"/>
      <path class="cls-6" d="M852.95,469.28c-.93.79-2.11,1.7-3.44.76-7.35-5.19-1.93-17.99-1.58-23.39.94-14.15-7.52-26.09.86-34.87,7.4-7.75,21.29-1.36,25.87,6.46,3.91,6.68,6.4,15.97,5.99,24.23-.38,7.66-3.52,15.55-6.88,21.8-1.88,3.49-5.96,5.08-8.81,6.36-2.68-4.23-8.14-4.63-12-1.36Z"/>
      <path class="cls-6" d="M980.89,254.32c2.02,4.53-8.05,2.89-8.57,5.69-.45,2.39,2.21,3.82,3.9,5.77-2.92,3.45-16.11-1-17.75-4.94-1.84-4.41-2.17-9.24-4.39-13.27-5.56-10.07-11.88-18.42-23.66-21.95,15.24-.34,29.94,11.32,45.46,7.94.85.25,2.78.9,3.51,1.12s.88,1.89.7,2.97c-3.89,1.13-15.51,6.55-10.88,11.93,1.98,2.3,9.81.57,11.68,4.77Z"/>
      <path d="M913.94,267.59c-5.86,4.02-14.14-1.33-17.4-8.54-2.04-4.51-3.62-10.61-.44-15.11,2.74-3.89,13.19-3.84,19.44,7.35,1.83,3.28,2.87,6.15,2,10.01-.6,2.63-1.68,4.98-3.59,6.29ZM899.07,254.16c-.41-2.75-.33-4.73,1.95-5.98s3.87-1.12,6.16.4c4.6,3.06,7.52,7.97,5.67,13.16,3.21-5.86-.81-9.81-4.65-13.19-2.09-1.84-7.39-5.4-9.6-1.31-3.31,6.14,3,18.6,10.59,17.63,1.43-.18,2.93-.74,3.31-2.72-1.96,2.11-3.87,2.25-6.11,1.49-4.2-1.43-6.63-4.92-7.31-9.49ZM908.06,261.08c-2.13-2.12-3.15-4.06-4.45-6.27-.1,2.96,2.23,5.28,4.45,6.27Z"/>
      <path d="M910.65,281.68c-.33-.44.83-1.36,1.1-1.16,4.66,3.6,14.72,4.27,19.19,2.68,4.98-1.78,9.98-5.59,11.73-10.08l2.57-6.57c.19-.48,1.59-.26,1.75.09,1.8,3.9-1.82,18.92-13.36,22.13-8.71,2.43-17.61,0-22.98-7.09Z"/>
      <path d="M925.4,273.52c-1.96-.35-3.48-1.62-3.86-2.83-1.51-4.79,3.42-8.36,7.62-9.56,1.8-.51,3.51-.76,5.14.42,1.13.81,2.73,2.49,2.38,4.37-.95,5.11-6.16,8.51-11.28,7.6Z"/>
      <path class="cls-2" d="M899.07,254.16c.69,4.57,3.11,8.07,7.31,9.49,2.24.76,4.16.62,6.11-1.49-.38,1.98-1.88,2.54-3.31,2.72-7.59.96-13.9-11.49-10.59-17.63,2.21-4.09,7.51-.53,9.6,1.31,3.84,3.37,7.86,7.33,4.65,13.19,1.85-5.2-1.07-10.11-5.67-13.16-2.29-1.52-3.95-1.62-6.16-.4s-2.36,3.23-1.95,5.98Z"/>
      <path class="cls-2" d="M908.06,261.08c-2.22-1-4.56-3.31-4.45-6.27,1.3,2.22,2.32,4.16,4.45,6.27Z"/>
      <g>
        <path d="M937.17,255.1c-2.83,2.84-7.29,2.27-10.75.08-5.67-3.58-11.44-15.36-6.23-20.36,1.61-1.55,3.7-1.73,5.61-1.54,4.97.48,7.81,3.26,10.74,6.79,3.64,4.37,5.27,10.37.62,15.03ZM927.48,238.32c4.3,1.34,7.5,5.06,8.36,8.92.58,2.59-.25,4.18-2.03,6.1,2.12-.51,2.71-2.91,2.89-4.34.4-3.14-5.06-12.22-10.75-12.04-1.81.06-3.06,2.06-3.63,3.27-1.66,3.58,3.93,16.14,10.9,13.1-6.66-.78-11.49-5.81-9.95-12.43.28-1.19,2.84-3.01,4.2-2.58ZM931.04,250.39l-3.81-4.62c.53,2.01,1.59,4.04,3.81,4.62Z"/>
        <path class="cls-2" d="M927.48,238.32c-1.36-.43-3.92,1.39-4.2,2.58-1.54,6.62,3.29,11.66,9.95,12.43-6.98,3.04-12.57-9.52-10.9-13.1.56-1.21,1.81-3.22,3.63-3.27,5.69-.18,11.15,8.89,10.75,12.04-.18,1.44-.77,3.83-2.89,4.34,1.78-1.92,2.61-3.51,2.03-6.1-.86-3.85-4.06-7.57-8.36-8.92Z"/>
        <path class="cls-2" d="M931.04,250.39c-2.22-.58-3.28-2.6-3.81-4.62l3.81,4.62Z"/>
      </g>
    </g>
    <g>
      <g>
        <path d="M1042.29,181.72c2.93.07,9.14.14,12.06.23-12.77-10.24-12.75-10.92-16.7-17.08-7.97-12.39-14.67-25.17-18.92-39.16-3.76-12.38-2.81-25.05-.37-37.66,2.75-14.23,17.23-25.7,8.52-36.12-5.29.17-2.97,6.39-4.51,8.97l-5.94,9.9-1.61-13.63c-7.71-9.52.82-17.33-5.72-21.95-4.77.07-2.74,4.76-5.67,11.65-3.46,8.13,3.16,11.85,4.13,21.41l-9.08-10.61c-7.98-9.32-1.51-11.44-6.96-19.45-5.18,2.51-4.3,7.14-4.68,11.02-.59,6.11,1.03,10.34,4.55,15.21,2.1,2.9,3.86,6.43,6.91,8.74,5.38,4.08,10.83,8,13.12,14.93-3.71-1.43-5.8-4.29-7.9-7.28-8.34-11.88-18.32-5.63-26.25-17.28-1.94-2.85-8.57-13.26-12.34-9.79-4.94,4.55,1.76,11.88,4.53,16.02,2.2,3.28,4.32,6.17,8.35,7.72,9.25,3.56,18.68,7.56,25.61,14.79l6.89,7.19c-11.36,2.15-15.76-12.81-31.41-13.5-7.25-.32-14.21-.96-21.21-2.43-3.92-.82-6.62,1.53-7.7,5.06-.34,1.11-.76,2.91-.5,3.78,1.14,3.7,18.11,2.14,22.85,2.04,8.42-.18,14.48,5.01,21.23,9.42,5.98,3.91,17.58.36,15.59,8.05-.38,1.47-3.49,2.5-5.51,1.83-5.78-1.91-11.75-3.63-17.16-6.27-8.18-4-16.13-5.94-25.13-3.21l-11.87-1.68c-1.43-.2-3.92,1.58-4.41,2.68-.42.94.95,3.2,1.97,3.73l11.77,6.07c5.24-1.04,10.54-3.68,15.49-2.08l22,7.11c9.73,3.14,14.86-1.81,15.99,1.29.32.87.46,2.45-.03,3.1-.41.55-2.37,1.16-3.11,1.03l-14.83-2.52c-5.24-.89-11.73-2.18-16.59.37-6.63,3.48-13.85,7.34-21.32,6.87-.95-.06-3,1.87-2.45,2.5l2.24,2.54-4.02,2.04c-.9.46-1.31,3.22-.54,3.6,2.17.88,4.36,2.01,6.12,2.97,8.23,2.86,13.96-14.72,30.01-12.97,12.4,1.35,14.18,6,25.49,3.01,1.1-.26,2.54,2.03,2.48,3.13-.05,1.01-1.43,2.97-2.41,3.46-7.64,3.87-8.07-6.98-21.35-2.73-6.7,2.15-9.84,7.29-10.52,14.14-.41,4.14-8.57,5.86-9.35,9.35-.13.59.71,2.3,1.33,2.34,1.45.09,4.07-.36,5.56-.63l-3.01,2.61c-.72.62-.17,3.4.43,3.73l3.6-.27,1.26,2.93c.89,2.08,7.6-3.34,8.05-6.47.65-4.52-.21-9.19,1.52-13.42,1.46-3.57,8.5-5.84,11.69-4,9.47,5.47,10.49-2.26,14.17-1.81,3.44.42,10.65,14.07,12.92,18.08,3.6,6.33,7.77,11.9,12.64,17.37Z"/>
        <path d="M1042.78,96.95c3.31,11,7.03,17.67,6.83,29.86l-.48,29.37c-.15,9.37,3.06,21.51,6.71,29.21-.07.89.47-2.16.56-2.36,2.67-5.56,2.81-8.49,6.8-15.61-1.61-5.74-1.94-15.19-2.86-21.23-2.25-14.75-4.59-33.22-12.68-46.93-.71-1.21-1.61-2.39-2.19-4.14-.38-1.15-1.5-3.87-2.23-3.37-.83.58-.9,4.14-.45,5.19"/>
      </g>
      <g>
        <path d="M1069.18,181.72c-2.93.07-5.86.14-8.78.23,4.91-5.33,9.46-10.92,13.42-17.08,7.97-12.39,14.67-25.17,18.92-39.16,3.76-12.38,2.81-25.05.37-37.66-2.75-14.23-17.23-25.7-8.52-36.12,5.29.17,2.97,6.39,4.51,8.97l5.94,9.9,1.61-13.63c7.71-9.52-.82-17.33,5.72-21.95,4.77.07,2.74,4.76,5.67,11.65,3.46,8.13-3.16,11.85-4.13,21.41l9.08-10.61c7.98-9.32,1.51-11.44,6.96-19.45,5.18,2.51,4.3,7.14,4.68,11.02.59,6.11-1.03,10.34-4.55,15.21-2.1,2.9-3.86,6.43-6.91,8.74-5.38,4.08-10.83,8-13.12,14.93,3.71-1.43,5.8-4.29,7.9-7.28,8.34-11.88,18.32-5.63,26.25-17.28,1.94-2.85,8.57-13.26,12.34-9.79,4.94,4.55-1.76,11.88-4.53,16.02-2.2,3.28-4.32,6.17-8.35,7.72-9.25,3.56-18.68,7.56-25.61,14.79l-6.89,7.19c11.36,2.15,15.76-12.81,31.41-13.5,7.25-.32,14.21-.96,21.21-2.43,3.92-.82,6.62,1.53,7.7,5.06.34,1.11.76,2.91.5,3.78-1.14,3.7-18.11,2.14-22.85,2.04-8.42-.18-14.48,5.01-21.23,9.42-5.98,3.91-17.58.36-15.59,8.05.38,1.47,3.49,2.5,5.51,1.83,5.78-1.91,11.75-3.63,17.16-6.27,8.18-4,16.13-5.94,25.13-3.21l11.87-1.68c1.43-.2,3.92,1.58,4.41,2.68.42.94-.95,3.2-1.97,3.73l-11.77,6.07c-5.24-1.04-10.54-3.68-15.49-2.08l-22,7.11c-9.73,3.14-14.86-1.81-15.99,1.29-.32.87-.46,2.45.03,3.1.41.55,2.37,1.16,3.11,1.03l14.83-2.52c5.24-.89,11.73-2.18,16.59.37,6.63,3.48,13.85,7.34,21.32,6.87.95-.06,3,1.87,2.45,2.5l-2.24,2.54,4.02,2.04c.9.46,1.31,3.22.54,3.6-2.17.88-4.36,2.01-6.12,2.97-8.23,2.86-13.96-14.72-30.01-12.97-12.4,1.35-14.18,6-25.49,3.01-1.1-.26-2.54,2.03-2.48,3.13.05,1.01,1.43,2.97,2.41,3.46,7.64,3.87,8.07-6.98,21.35-2.73,6.7,2.15,9.84,7.29,10.52,14.14.41,4.14,8.57,5.86,9.35,9.35.13.59-.71,2.3-1.33,2.34-1.45.09-4.07-.36-5.56-.63l3.01,2.61c.72.62.17,3.4-.43,3.73l-3.6-.27-1.26,2.93c-.89,2.08-7.6-3.34-8.05-6.47-.65-4.52.21-9.19-1.52-13.42-1.46-3.57-8.5-5.84-11.69-4-9.47,5.47-10.49-2.26-14.17-1.81-3.44.42-10.65,14.07-12.92,18.08-3.6,6.33-7.77,11.9-12.64,17.37Z"/>
        <path d="M1071.41,63.9c-.36,15.64,2.03,21.51-3.07,42.01-2.48,9.97-9.97,39.85-9.97,39.85-3.18,12.72-3.92,24.97-2.89,36.2.16-.25,2.14,5.49,2.3,5.25,4.39-7.02,5.91-2.6,8.71-4.59-3.05-23.99,2.68-38.56,5.1-49.26,5.88-26.02,7.16-44.99,3.78-65.3-.3-1.79-.79-3.58-.78-6.08,0-1.65-.2-5.57-1.07-5.04-.99.61-2.21,5.44-2.12,6.97"/>
      </g>
      <path d="M1040.32,193.33s6.29-1.47,1.97-11.61h26.89s-3.8,5.91,1.68,11.61h-30.52"/>
    </g>
    <text/>
    <g>
      <g>
        <g>
          <path class="cls-4" d="M1157.83,510.25c-60.01-24.24-145.44-24.38-204.54.06l6.77,25.34c.8,3.01-4.82,8.14-7.71,9.13l-25.08,8.58c-24.05,8.22-43.98,20.78-63.27,39.57-.59-14.58,4.88-25.2,9.11-38.35-1.93-.33-6.32-.85-8.52-.58l-23,2.87c17.03-23.24,39.41-36.19,65.39-47.88-.03-7.25-11.99-18.9-3.49-25.09,39.31-28.59,85.06-40.21,133.31-43.74,55.65-4.08,127.51,9.45,172.16,44.89,6.75,5.36-4.8,17.89-4.53,24.16,25.38,11.06,49.22,24.65,64.99,47.61l-31.24-3.43c3.52,13.97,9.63,24.14,9.14,39.5-22.5-22.78-48.09-36.41-77.94-44.29-6.46-1.71-13.69-5.44-18.4-10.3l6.85-28.05ZM1197.57,529.16c1.19-11.27,2.37-21.89,7.41-31.4,1.16-2.19,3.77-8.75,1.73-10.35-76.6-60.14-226.75-60.66-304.46,2.04,7.72,13,10.53,24.89,11.22,40.11,9.25-7.38,17.69-13,27.98-17.6,43.9-19.61,91.6-25.23,139.45-21.88,34.89,2.45,89.99,15.35,116.67,39.08ZM957.16,536.78c-2.11-7.15-9.18-4.37-12.73-2.79l-19.08,8.51c-2.38,1.06-8.41.04-10.12-1.73-1.49-1.56-3.64-5.61-3.99-7.81l-3.22-20.75c-23.24,9.68-43.07,22.37-58.83,40.23l28.83-1.79c-4.4,12.92-7.9,21.25-10.24,34.38,19.32-18.45,42.8-30.94,69.92-38.15,6.58-1.75,15.1-5.6,19.46-10.1ZM954.71,528.48l-4.91-16.71c-9.86,4.29-35.57,15.58-33.69,25.14,2.01,10.16,29.58-10.48,38.6-8.42ZM1189.95,539.87c1.77.37,5.89-2.56,5.56-4.03-2.43-10.95-22.93-18.91-34.11-23.93l-4.47,16.49c16.53,1.73,15.86,7.87,33.02,11.48ZM1172.68,546.59c27.74,7.23,51.52,19.85,71.12,38.46-2.57-13.64-6.06-22.01-10.42-34.42l28.71,1.58c-16.37-18.43-35.95-30.61-58.59-39.57-3.28,7.37-.73,25.94-9.38,29.29-10.48,4.06-20.34-8.93-35.44-9.69-1.34-.07-4.62,2.48-4.2,3.59,1.93,5.1,13.85,9.63,18.21,10.77Z"/>
          <path class="cls-4" d="M1197.57,529.16c-26.68-23.73-81.79-36.64-116.67-39.08-47.85-3.35-95.55,2.27-139.45,21.88-10.29,4.6-18.73,10.22-27.98,17.6-.7-15.22-3.51-27.12-11.22-40.11,77.72-62.7,227.86-62.18,304.46-2.04,2.04,1.6-.57,8.16-1.73,10.35-5.04,9.52-6.22,20.13-7.41,31.4Z"/>
          <path class="cls-3" d="M957.16,536.78c-4.36,4.5-12.88,8.36-19.46,10.1-27.11,7.2-50.59,19.69-69.92,38.15,2.34-13.13,5.84-21.47,10.24-34.38l-28.83,1.79c15.76-17.86,35.59-30.55,58.83-40.23l3.22,20.75c.34,2.2,2.49,6.26,3.99,7.81,1.71,1.78,7.74,2.79,10.12,1.73l19.08-8.51c3.56-1.59,10.62-4.36,12.73,2.79Z"/>
          <path class="cls-3" d="M1172.68,546.59c-4.36-1.14-16.28-5.67-18.21-10.77-.42-1.11,2.86-3.66,4.2-3.59,15.1.76,24.96,13.75,35.44,9.69,8.65-3.35,6.1-21.93,9.38-29.29,22.64,8.96,42.21,21.15,58.59,39.57l-28.71-1.58c4.36,12.41,7.85,20.78,10.42,34.42-19.6-18.6-43.38-31.23-71.12-38.46Z"/>
          <path class="cls-3" d="M954.71,528.48c-9.02-2.06-36.59,18.58-38.6,8.42-1.89-9.56,23.82-20.85,33.69-25.14l4.91,16.71Z"/>
          <path class="cls-3" d="M1189.21,537.53c-16.78-3.3-16.13-8.93-32.28-10.52l4.37-15.11c10.93,4.6,30.97,11.9,33.35,21.93.32,1.35-3.7,4.04-5.44,3.7Z"/>
        </g>
        <polygon points="912.05 530.17 912.26 535.99 914.95 537.35 918.13 528.02 912.05 530.17"/>
        <polygon points="954.71 528.48 951.59 530.89 957.16 535.48 960.57 534.48 954.71 528.48"/>
        <polygon points="1159.4 528.7 1153.11 529.55 1153.11 535.77 1159.4 528.7"/>
        <path d="M1195.53,527.41s-1.46,1.59-2.04,2.14,2.04,7.22,2.04,7.22l3.71-1.01,1.37-3.68-5.08-4.68Z"/>
      </g>
      <g>
        <path class="cls-1" d="M923.25,481.3l11.8-4.88.03.08c-.01.95.01,1.67.39,2.59.72,1.74,2.75,4.24,8.44,10.91,1.3,1.5,2.36,2.77,3.26,3.84,0-1.94-.05-4.27-.01-7.45-8.74-8.89-9.21-9.6-10.69-10.57l9.29-3.84c.08.42.24.8.47,1.34.4.96,1.25,2.37,3.79,5.12-.16-4-.56-5.5-.98-6.5-.18-.42-.3-.73-.5-1.1l6.25-2.58c-.03,1.68-.02,2.45.17,14.15,1.98,1.94,3.57,3.49,4.89,4.84-.11-1.13-.21-2.35-.28-3.72-.67-8.71-.98-11.97-1.71-13.74-.37-.89-.85-1.41-1.57-2.06l-.03-.08,10.56-4.37.03.08c-.75,1.8-.91,1.96-.27,15.51.56,13.13.5,14.2.74,15l-8.79,3.64c-.57-.71-1.91-2.1-6.13-6.4,0,5.91-.04,7.96.04,8.92l-7.98,3.3c-.4-.74-1.19-1.45-10.07-11.14-9.08-10.06-9.25-10.03-11.11-10.8l-.03-.08Z"/>
        <path class="cls-1" d="M979.18,489.89c1.26-2.99,1.22-3.97-1.4-14.16-2.62-10.18-3.08-11.14-5.62-13.16l-.02-.08c14.46-3.72,17.94-4.61,19.17-5.19l.08-.02,2.39,7.44-.08.02c-1.86-.38-3.47-.27-5.9.35-.89.23-1.7.44-2.42.62.21.98.45,2.08.77,3.33.46-.07.98-.21,1.51-.34,1.7-.44,3.74-1.05,6.05-1.94l1.67,5.99c-3.38.61-5.85,1.2-7.87,1.72.57,2.22,1.09,4.07,1.47,5.56.81-.21,1.7-.44,2.67-.68,2.59-.66,3.75-1.83,5.52-3.31l.08-.02,1.86,9.08-.08.02c-1.44.11-5.03,1.04-19.82,4.84l-.02-.08Z"/>
        <path class="cls-1" d="M1001.95,474.95h.08c3.84,1.22,4.78,1.57,6.06,1.37.99-.16,1.64-.82,1.47-1.89-.13-.82-1.07-1.39-2.25-2.13l-3.24-1.97c-2.07-1.27-3.38-3.13-3.8-5.68-.94-5.76,3.49-9.99,9.83-11.03,1.81-.3,3.59-.25,4.72-.09l2.05,8.16h-.08c-2.63-1.33-4.27-1.78-5.54-1.58-1.07.17-1.7.74-1.56,1.61.14.86,1.06,1.35,2.19,2.05l3.59,2.08c2.29,1.36,3.69,3.46,4.15,6.26,1.05,6.42-3.17,10.41-9.51,11.44-1.98.32-4.93.38-6.34.27l-1.83-8.87Z"/>
        <path class="cls-1" d="M1027.23,480.4c2.07-3.16,2.2-4.68,1.5-14.21-.22-2.91-.38-5.12-.55-6.82-3.49.3-4.31.57-6.09,1.41h-.08s-.39-8.58-.39-8.58h.08c.82.35,9.18-.23,10.52-.33,1.46-.11,10.31-.81,11.11-1.28h.08s.34,8.58.34,8.58h-.08c-1.64-.63-2.44-.73-5.77-.53.13,1.71.29,3.91.51,6.82.72,9.65,1.07,11.05,3.58,13.83v.08s-14.76,1.09-14.76,1.09v-.08Z"/>
        <path class="cls-1" d="M1048.4,478.82c2.16-2.26,2.27-2.93,2.64-13.98.38-11.09.27-11.8-1.69-14.21v-.09c2,.15,3.38.2,6.84.31,3.09.1,4.92.08,10.38.27,6.5.22,9.4,3.53,9.21,9.08-.11,3.29-1.7,5.95-4.01,7.63,5.11,10.53,5.88,11.3,7.44,11.98v.08c-3.25-.11-6.43-.05-9.97-.17-1.08-.04-1.66-.31-2.21-1.2-1.07-1.79-2.66-5.18-4.33-8.83-.75-.07-1.46-.17-2.08-.28-.16,7.05.11,7.81,1.84,9.87v.08s-14.05-.48-14.05-.48v-.08ZM1063.07,463.45c1.88.06,3.08-1.11,3.15-3.11.07-2-.86-3.04-3.02-3.11-.63-.02-1.33-.05-2.17-.03l-.21,6.09c.87.07,1.79.14,2.25.16Z"/>
        <path class="cls-1" d="M1078.83,479.83c1.64-1.01,1.87-1.14,9.27-12.93,4.4-6.99,6.05-9.43,6.78-10.54-.41-.87-.96-1.67-1.75-2.81v-.08s10.15,1.61,10.15,1.61c.03.85.39,1.83,3.73,14.82,3.35,13.5,3.52,13.52,4.82,15.16v.08s-13.77-2.18-13.77-2.18v-.08c.93-.99,1.47-1.71,1.66-2.95.11-.7.08-1.59-.02-2.79-1.15-.22-2.42-.43-3.82-.65-1.69-.27-3.17-.5-4.55-.59-.42,1.03-.67,1.84-.78,2.54-.2,1.28.12,2.17.61,3.35v.08s-12.33-1.95-12.33-1.95v-.08ZM1096.72,471.14c.66.1,1.32.21,1.94.31-.29-1.35-.64-2.89-1.03-4.68-.16-.62-.28-1.18-.4-1.71-.24.47-.53.97-.87,1.51-.92,1.54-1.68,2.9-2.34,4.11.86.18,1.76.32,2.71.47Z"/>
        <path class="cls-1" d="M1113.16,485.72c2.55-2.01,2.99-2.88,5.64-13.05s2.71-11.23,1.47-14.23l.02-.08,13.68,3.57-.02.08c-2.59,2-3.09,2.94-5.75,13.11-.73,2.78-1.29,4.96-1.72,6.75.36.09.73.19,1.13.29,2.7.71,4.32.31,6.72-.15l.08.02-2.54,8.73c-.49-.26-1.5-.52-3.89-1.1-1.01-.26-2.26-.59-3.83-1l-11.02-2.87.02-.08Z"/>
        <path class="cls-1" d="M1134.67,491.55c2.68-1.83,3.18-2.67,6.52-12.64,3.34-9.97,3.47-11.03,2.43-14.1l.03-.08,13.33,4.46-.03.08c-2.68,1.83-3.21,2.75-6.55,12.72-3.34,9.97-3.45,10.95-2.41,14.02l-.03.08-13.33-4.46.03-.08Z"/>
        <path class="cls-1" d="M1149.55,496.2c1.83-.58,2.09-.65,12.15-10.28,5.98-5.7,8.18-7.67,9.15-8.57-.19-.94-.52-1.86-1.01-3.15l.03-.08,9.44,4.03c-.17.83-.07,1.87,0,15.29-.04,13.91.11,13.98.97,15.89l-.03.08-12.82-5.47.03-.08c1.13-.74,1.83-1.31,2.32-2.46.28-.65.47-1.52.66-2.71-1.06-.5-2.25-1.01-3.55-1.56-1.57-.67-2.95-1.26-4.27-1.69-.66.9-1.1,1.62-1.38,2.27-.51,1.19-.41,2.14-.23,3.4l-.03.08-11.47-4.9.03-.08ZM1169.03,492.13c.61.26,1.23.52,1.8.77.05-1.39.08-2.96.14-4.79,0-.64.02-1.22.03-1.76-.35.39-.75.81-1.21,1.25-1.27,1.27-2.34,2.4-3.27,3.41.79.38,1.63.74,2.52,1.12Z"/>
      </g>
    </g>
  </g>
  <path class="cls-2" d="M1095.64,261.96c-.02-.41.83-.9.18-1.43l-.81,1.05c-.68-.43-1.37-1.36-1.01-1.97.65-.82,3.92,2.03,3.18,2.93-.17.42-1.51.01-1.55-.59Z"/>
</svg>