<?xml version="1.0" encoding="UTF-8"?>
<svg id="Layer_2" data-name="Layer 2" xmlns="http://www.w3.org/2000/svg" viewBox="0 0 102.19 102.19">
  <defs>
    <style>
      .cls-1 {
        fill: #fff;
      }

      .cls-2 {
        fill: none;
      }

      .cls-3 {
        fill: #e19f3d;
      }
    </style>
  </defs>
  <g id="Logo">
    <g id="Swan">
      <circle class="cls-3" cx="51.27" cy="52.11" r="46.13"/>
      <path d="M84.1,87.45c-19.11,17.74-48.89,17.16-67.3-1.37C-2.12,67.03-1.92,36.21,17.23,17.4,35.7-.75,65.18-1.14,84.13,16.47c8.68,8.07,14.13,19.06,15.24,30.85,1.43,15.06-4.2,29.84-15.27,40.12ZM60.6,92.59c2.25-.47,4.8-1.32,6.96-2.24,11.19-4.74,19.62-14.05,23.31-25.64.38-1.2.7-2.34.95-3.58l.37-1.89.21-1.31c.1-.62.17-1.29.22-1.92l.23-3.04c.04-.55.04-1.18,0-1.73l-.23-3.03c-.05-.64-.13-1.27-.22-1.93-.92-6.54-3.32-12.68-7.12-18.08-1.05-1.49-2.1-2.83-3.32-4.16-.86-.93-1.7-1.83-2.65-2.66l-.86-.75c-2.83-2.47-6.32-4.7-9.75-6.28-3.27-1.51-6.66-2.51-10.16-3.17-.32-.06-2.98-.42-3.22-.42-2.46-.06-2.88-.41-5.32-.22l-3.03.25c-3.91.32-8.4,1.53-12.01,3.07-.71.31-1.37.56-2.04.92-1.39.74-2.78,1.41-4.09,2.29-4.67,3.12-8,6.13-11.29,10.71-3.62,5.03-6.04,10.7-7.14,16.77-.05.29-.1.54-.14.84l-.29,2.16c-.12.87-.11,1.66-.21,2.52-.31,2.61.06,3.95.2,6.48.06,1.04.58,3.95.85,5.06l.32,1.31c1.61,6.56,5.61,13.3,10.29,18.17.88.91,1.75,1.68,2.71,2.5,2.36,2.05,4.89,3.75,7.66,5.23,4.5,2.4,9.35,3.85,14.4,4.52.42.06.79.16,1.2.12.66-.06,1.24.11,1.88.16,1.26.1,2.57.09,3.84,0l2.52-.2c1.69-.13,3.28-.5,4.96-.85Z"/>
      <path d="M24.39,59.02c1.1.12,2.09.01,3.13.21.63.12,1.32.09,1.97-.01l-4.46-6.88c.96.2,1.58.61,2.55.89-.34-.48-.66-.91-1.04-1.36l-3.33-3.97c1.09.35,1.85.78,2.96,1.23l-1.43-4.21c.48,0,.84.25,1.25.44l1.73.77-.48-1.53c-.02-.08.06-.41.13-.4s.19.02.31.05l1.38.3c.36.08.7.14,1.02.11l-.9-.83c-.4-.37-.79-.65-1.17-1.16,1.46,0,2.26.42,3.5.48l-.94-1.85.24-.22,2.69.76-1.1-1.92,3.18.77,1.26.26c.31.06.56.15.95.09l-2.24-3.6-.05-.3c0-.05.22-.02.27.02l2.31,1.77c.28.21.53.36.86.58l-1.17-4.02c1.32,1.01,2.13,2.1,3.28,3.07.41-.69.03-1.64.38-2.74l1.33,1.05.96.75c1.14.9,2.21,1.82,3.27,2.8l.97.89c.72.66,1.43,1.43,1.91,2.26,1.05,1.85,1.09,4.33,2.14,4.82l3.21,1.48c5.17,2.38,8.17,5.25,11.01,10.18,1.23,2.13,2.25,4.31,3.14,6.64.35.38,2.26-1.43,2.48-1.71,1.73-2.14,2.25-4.17,2.03-6.9-.1-1.29-.5-2.37-1.05-3.54-.91-1.95-2.14-3.96-3.35-5.74l-.71-1.04-3.57-5.19-1.5-2.29c-.8-1.23-1.53-2.47-2.17-3.79-1.23-2.52-1.94-4.97-.97-7.69.73-2.06,2.28-3.56,4.15-4.6,1.74-.97,3.59-1.37,5.58-1.16,2.87.3,5.65,1.35,7.57,3.59.53.61.42,1.69.5,2.43.15,1.42,1.17,1.28,1.38,2.77.14,1-.07,1.96-.51,3-1.2-1.42-1.55-2.4-3.59-2.82l-1.95-.41c-1.95-.41-4.23-1.8-4.53-3.86-1.72.73-2.9,2.21-3.3,3.99-.21.95-.31,1.84.19,2.72s1.22,1.71,1.98,2.45l2.53,2.48c1.25,1.22,2.47,2.38,3.66,3.66,3.83,4.1,6.97,8.84,7.87,14.46.48,3.01.4,5.44-.37,8.4-.6,2.33-1.83,4.33-3.43,6.1-.26.28-.48.51-.76.76-3.43,3.05-7.41,4.5-11.89,5.33-.33.06-3.13.42-3.24.43l-1.81.06c-.91.03-1.74.18-2.64.03-.65-.11-1.35.04-2.02-.06l-1.28-.19c-.68-.1-1.27-.04-1.93-.13-1.42-.2-2.77-.49-4.17-.82l-.79-.19c-1.01-.24-1.92-.38-2.95-.24-2.2.3-.1,2.51-4.91,3l-1.91.19-.36-.03c-.88-.07,1.69-1.41,1.72-1.7-5.27-1.56-8.95-2.68-13.7-5.32-1.67-.93-3.07-2.14-4.37-3.53l-1.31-1.4c-.61-.66-1.62-1.95-2.11-2.9.32.08.39.11.73.24-.15-.44-.51-.84-.84-1.26l-2.55-3.27c.37-.07.55.15.81.32l1.65,1.1c.15-.5-.2-.76-.42-1.12l-1.06-1.76-1.84-2.91c-.29-.46-.62-.85-.83-1.43,1.85,1.29,3.66,2.49,5.83,3.11.94.27,1.83.39,2.79.49l2.26.24ZM75.86,27.62c.02.37.85.62.95.36.46-.55-1.55-2.31-1.96-1.8-.23.37.2.95.62,1.21l.5-.65c.4.32-.13.63-.11.88Z"/>
      <path class="cls-1" d="M75.86,27.62c-.02-.25.51-.56.11-.88l-.5.65c-.42-.26-.85-.84-.62-1.21.4-.51,2.42,1.25,1.96,1.8-.11.26-.93,0-.95-.36Z"/>
    </g>
  </g>
  <g id="Wireframe">
    <rect class="cls-2" width="102.19" height="102.19"/>
  </g>
</svg>